<svg width="1363" height="167" viewBox="0 0 1363 167" fill="none" xmlns="http://www.w3.org/2000/svg">
<rect width="1363" height="167" rx="15" fill="#F0F0F0"/>
<path d="M0 15C0 6.71573 6.71573 0 15 0H37V167H15C6.71573 167 0 160.284 0 152V15Z" fill="#424241"/>
<path d="M100.906 54.9219L93.3945 52.2383V49.0859L103.602 53.375V55.6367L100.906 54.9219ZM93.3945 57.1719L100.918 54.4297L103.602 53.7852V56.0352L93.3945 60.3242V57.1719ZM120.781 57.5352C120.781 57.2305 120.734 56.957 120.641 56.7148C120.555 56.4648 120.391 56.2383 120.148 56.0352C119.906 55.8242 119.566 55.6172 119.129 55.4141C118.691 55.2109 118.125 55 117.43 54.7812C116.656 54.5312 115.922 54.25 115.227 53.9375C114.539 53.625 113.93 53.2617 113.398 52.8477C112.875 52.4258 112.461 51.9375 112.156 51.3828C111.859 50.8281 111.711 50.1836 111.711 49.4492C111.711 48.7383 111.867 48.0938 112.18 47.5156C112.492 46.9297 112.93 46.4297 113.492 46.0156C114.055 45.5938 114.719 45.2695 115.484 45.043C116.258 44.8164 117.105 44.7031 118.027 44.7031C119.285 44.7031 120.383 44.9297 121.32 45.3828C122.258 45.8359 122.984 46.457 123.5 47.2461C124.023 48.0352 124.285 48.9375 124.285 49.9531H120.793C120.793 49.4531 120.688 49.0156 120.477 48.6406C120.273 48.2578 119.961 47.957 119.539 47.7383C119.125 47.5195 118.602 47.4102 117.969 47.4102C117.359 47.4102 116.852 47.5039 116.445 47.6914C116.039 47.8711 115.734 48.1172 115.531 48.4297C115.328 48.7344 115.227 49.0781 115.227 49.4609C115.227 49.75 115.297 50.0117 115.438 50.2461C115.586 50.4805 115.805 50.6992 116.094 50.9023C116.383 51.1055 116.738 51.2969 117.16 51.4766C117.582 51.6562 118.07 51.832 118.625 52.0039C119.555 52.2852 120.371 52.6016 121.074 52.9531C121.785 53.3047 122.379 53.6992 122.855 54.1367C123.332 54.5742 123.691 55.0703 123.934 55.625C124.176 56.1797 124.297 56.8086 124.297 57.5117C124.297 58.2539 124.152 58.918 123.863 59.5039C123.574 60.0898 123.156 60.5859 122.609 60.9922C122.062 61.3984 121.41 61.707 120.652 61.918C119.895 62.1289 119.047 62.2344 118.109 62.2344C117.266 62.2344 116.434 62.125 115.613 61.9062C114.793 61.6797 114.047 61.3398 113.375 60.8867C112.711 60.4336 112.18 59.8555 111.781 59.1523C111.383 58.4492 111.184 57.6172 111.184 56.6562H114.711C114.711 57.1875 114.793 57.6367 114.957 58.0039C115.121 58.3711 115.352 58.668 115.648 58.8945C115.953 59.1211 116.312 59.2852 116.727 59.3867C117.148 59.4883 117.609 59.5391 118.109 59.5391C118.719 59.5391 119.219 59.4531 119.609 59.2812C120.008 59.1094 120.301 58.8711 120.488 58.5664C120.684 58.2617 120.781 57.918 120.781 57.5352ZM129.852 51.7578V66.875H126.477V49.3203H129.605L129.852 51.7578ZM137.879 55.5195V55.7656C137.879 56.6875 137.77 57.543 137.551 58.332C137.34 59.1211 137.027 59.8086 136.613 60.3945C136.199 60.9727 135.684 61.4258 135.066 61.7539C134.457 62.0742 133.754 62.2344 132.957 62.2344C132.184 62.2344 131.512 62.0781 130.941 61.7656C130.371 61.4531 129.891 61.0156 129.5 60.4531C129.117 59.8828 128.809 59.2227 128.574 58.4727C128.34 57.7227 128.16 56.918 128.035 56.0586V55.4141C128.16 54.4922 128.34 53.6484 128.574 52.8828C128.809 52.1094 129.117 51.4414 129.5 50.8789C129.891 50.3086 130.367 49.8672 130.93 49.5547C131.5 49.2422 132.168 49.0859 132.934 49.0859C133.738 49.0859 134.445 49.2383 135.055 49.543C135.672 49.8477 136.188 50.2852 136.602 50.8555C137.023 51.4258 137.34 52.1055 137.551 52.8945C137.77 53.6836 137.879 54.5586 137.879 55.5195ZM134.492 55.7656V55.5195C134.492 54.9805 134.445 54.4844 134.352 54.0312C134.266 53.5703 134.125 53.168 133.93 52.8242C133.742 52.4805 133.492 52.2148 133.18 52.0273C132.875 51.832 132.504 51.7344 132.066 51.7344C131.605 51.7344 131.211 51.8086 130.883 51.957C130.562 52.1055 130.301 52.3203 130.098 52.6016C129.895 52.8828 129.742 53.2188 129.641 53.6094C129.539 54 129.477 54.4414 129.453 54.9336V56.5625C129.492 57.1406 129.602 57.6602 129.781 58.1211C129.961 58.5742 130.238 58.9336 130.613 59.1992C130.988 59.4648 131.48 59.5977 132.09 59.5977C132.535 59.5977 132.91 59.5 133.215 59.3047C133.52 59.1016 133.766 58.8242 133.953 58.4727C134.148 58.1211 134.285 57.7148 134.363 57.2539C134.449 56.793 134.492 56.2969 134.492 55.7656ZM139.438 55.7891V55.543C139.438 54.6133 139.57 53.7578 139.836 52.9766C140.102 52.1875 140.488 51.5039 140.996 50.9258C141.504 50.3477 142.129 49.8984 142.871 49.5781C143.613 49.25 144.465 49.0859 145.426 49.0859C146.387 49.0859 147.242 49.25 147.992 49.5781C148.742 49.8984 149.371 50.3477 149.879 50.9258C150.395 51.5039 150.785 52.1875 151.051 52.9766C151.316 53.7578 151.449 54.6133 151.449 55.543V55.7891C151.449 56.7109 151.316 57.5664 151.051 58.3555C150.785 59.1367 150.395 59.8203 149.879 60.4062C149.371 60.9844 148.746 61.4336 148.004 61.7539C147.262 62.0742 146.41 62.2344 145.449 62.2344C144.488 62.2344 143.633 62.0742 142.883 61.7539C142.141 61.4336 141.512 60.9844 140.996 60.4062C140.488 59.8203 140.102 59.1367 139.836 58.3555C139.57 57.5664 139.438 56.7109 139.438 55.7891ZM142.812 55.543V55.7891C142.812 56.3203 142.859 56.8164 142.953 57.2773C143.047 57.7383 143.195 58.1445 143.398 58.4961C143.609 58.8398 143.883 59.1094 144.219 59.3047C144.555 59.5 144.965 59.5977 145.449 59.5977C145.918 59.5977 146.32 59.5 146.656 59.3047C146.992 59.1094 147.262 58.8398 147.465 58.4961C147.668 58.1445 147.816 57.7383 147.91 57.2773C148.012 56.8164 148.062 56.3203 148.062 55.7891V55.543C148.062 55.0273 148.012 54.543 147.91 54.0898C147.816 53.6289 147.664 53.2227 147.453 52.8711C147.25 52.5117 146.98 52.2305 146.645 52.0273C146.309 51.8242 145.902 51.7227 145.426 51.7227C144.949 51.7227 144.543 51.8242 144.207 52.0273C143.879 52.2305 143.609 52.5117 143.398 52.8711C143.195 53.2227 143.047 53.6289 142.953 54.0898C142.859 54.543 142.812 55.0273 142.812 55.543ZM159.734 49.3203V51.7109H152.352V49.3203H159.734ZM154.18 46.1914H157.555V58.1797C157.555 58.5469 157.602 58.8281 157.695 59.0234C157.797 59.2188 157.945 59.3555 158.141 59.4336C158.336 59.5039 158.582 59.5391 158.879 59.5391C159.09 59.5391 159.277 59.5312 159.441 59.5156C159.613 59.4922 159.758 59.4688 159.875 59.4453L159.887 61.9297C159.598 62.0234 159.285 62.0977 158.949 62.1523C158.613 62.207 158.242 62.2344 157.836 62.2344C157.094 62.2344 156.445 62.1133 155.891 61.8711C155.344 61.6211 154.922 61.2227 154.625 60.6758C154.328 60.1289 154.18 59.4102 154.18 58.5195V46.1914ZM165.219 49.3203V62H161.832V49.3203H165.219ZM161.621 46.0156C161.621 45.5234 161.793 45.1172 162.137 44.7969C162.48 44.4766 162.941 44.3164 163.52 44.3164C164.09 44.3164 164.547 44.4766 164.891 44.7969C165.242 45.1172 165.418 45.5234 165.418 46.0156C165.418 46.5078 165.242 46.9141 164.891 47.2344C164.547 47.5547 164.09 47.7148 163.52 47.7148C162.941 47.7148 162.48 47.5547 162.137 47.2344C161.793 46.9141 161.621 46.5078 161.621 46.0156ZM172.309 62H168.91V48.1953C168.91 47.2344 169.098 46.4258 169.473 45.7695C169.855 45.1055 170.391 44.6055 171.078 44.2695C171.773 43.9258 172.598 43.7539 173.551 43.7539C173.863 43.7539 174.164 43.7773 174.453 43.8242C174.742 43.8633 175.023 43.9141 175.297 43.9766L175.262 46.5195C175.113 46.4805 174.957 46.4531 174.793 46.4375C174.629 46.4219 174.438 46.4141 174.219 46.4141C173.812 46.4141 173.465 46.4844 173.176 46.625C172.895 46.7578 172.68 46.957 172.531 47.2227C172.383 47.4883 172.309 47.8125 172.309 48.1953V62ZM174.84 49.3203V51.7109H167.023V49.3203H174.84ZM180.371 60.5703L183.734 49.3203H187.355L182.258 63.9102C182.148 64.2305 182 64.5742 181.812 64.9414C181.633 65.3086 181.387 65.6562 181.074 65.9844C180.77 66.3203 180.383 66.5938 179.914 66.8047C179.453 67.0156 178.887 67.1211 178.215 67.1211C177.895 67.1211 177.633 67.1016 177.43 67.0625C177.227 67.0234 176.984 66.9688 176.703 66.8984V64.4258C176.789 64.4258 176.879 64.4258 176.973 64.4258C177.066 64.4336 177.156 64.4375 177.242 64.4375C177.688 64.4375 178.051 64.3867 178.332 64.2852C178.613 64.1836 178.84 64.0273 179.012 63.8164C179.184 63.6133 179.32 63.3477 179.422 63.0195L180.371 60.5703ZM178.965 49.3203L181.719 58.5078L182.199 62.082L179.902 62.3281L175.344 49.3203H178.965ZM204.781 56.3398H208.285C208.215 57.4883 207.898 58.5078 207.336 59.3984C206.781 60.2891 206.004 60.9844 205.004 61.4844C204.012 61.9844 202.816 62.2344 201.418 62.2344C200.324 62.2344 199.344 62.0469 198.477 61.6719C197.609 61.2891 196.867 60.7422 196.25 60.0312C195.641 59.3203 195.176 58.4609 194.855 57.4531C194.535 56.4453 194.375 55.3164 194.375 54.0664V52.8828C194.375 51.6328 194.539 50.5039 194.867 49.4961C195.203 48.4805 195.68 47.6172 196.297 46.9062C196.922 46.1953 197.668 45.6484 198.535 45.2656C199.402 44.8828 200.371 44.6914 201.441 44.6914C202.863 44.6914 204.062 44.9492 205.039 45.4648C206.023 45.9805 206.785 46.6914 207.324 47.5977C207.871 48.5039 208.199 49.5352 208.309 50.6914H204.793C204.754 50.0039 204.617 49.4219 204.383 48.9453C204.148 48.4609 203.793 48.0977 203.316 47.8555C202.848 47.6055 202.223 47.4805 201.441 47.4805C200.855 47.4805 200.344 47.5898 199.906 47.8086C199.469 48.0273 199.102 48.3594 198.805 48.8047C198.508 49.25 198.285 49.8125 198.137 50.4922C197.996 51.1641 197.926 51.9531 197.926 52.8594V54.0664C197.926 54.9492 197.992 55.7266 198.125 56.3984C198.258 57.0625 198.461 57.625 198.734 58.0859C199.016 58.5391 199.375 58.8828 199.812 59.1172C200.258 59.3438 200.793 59.457 201.418 59.457C202.152 59.457 202.758 59.3398 203.234 59.1055C203.711 58.8711 204.074 58.5234 204.324 58.0625C204.582 57.6016 204.734 57.0273 204.781 56.3398ZM213.676 44V62H210.301V44H213.676ZM213.195 55.2148H212.27C212.277 54.332 212.395 53.5195 212.621 52.7773C212.848 52.0273 213.172 51.3789 213.594 50.832C214.016 50.2773 214.52 49.8477 215.105 49.543C215.699 49.2383 216.355 49.0859 217.074 49.0859C217.699 49.0859 218.266 49.1758 218.773 49.3555C219.289 49.5273 219.73 49.8086 220.098 50.1992C220.473 50.582 220.762 51.0859 220.965 51.7109C221.168 52.3359 221.27 53.0938 221.27 53.9844V62H217.871V53.9609C217.871 53.3984 217.789 52.957 217.625 52.6367C217.469 52.3086 217.238 52.0781 216.934 51.9453C216.637 51.8047 216.27 51.7344 215.832 51.7344C215.348 51.7344 214.934 51.8242 214.59 52.0039C214.254 52.1836 213.984 52.4336 213.781 52.7539C213.578 53.0664 213.43 53.4336 213.336 53.8555C213.242 54.2773 213.195 54.7305 213.195 55.2148ZM230.68 59.1406V53.4922C230.68 53.0859 230.613 52.7383 230.48 52.4492C230.348 52.1523 230.141 51.9219 229.859 51.7578C229.586 51.5938 229.23 51.5117 228.793 51.5117C228.418 51.5117 228.094 51.5781 227.82 51.7109C227.547 51.8359 227.336 52.0195 227.188 52.2617C227.039 52.4961 226.965 52.7734 226.965 53.0938H223.59C223.59 52.5547 223.715 52.043 223.965 51.5586C224.215 51.0742 224.578 50.6484 225.055 50.2812C225.531 49.9062 226.098 49.6133 226.754 49.4023C227.418 49.1914 228.16 49.0859 228.98 49.0859C229.965 49.0859 230.84 49.25 231.605 49.5781C232.371 49.9062 232.973 50.3984 233.41 51.0547C233.855 51.7109 234.078 52.5312 234.078 53.5156V58.9414C234.078 59.6367 234.121 60.207 234.207 60.6523C234.293 61.0898 234.418 61.4727 234.582 61.8008V62H231.172C231.008 61.6562 230.883 61.2266 230.797 60.7109C230.719 60.1875 230.68 59.6641 230.68 59.1406ZM231.125 54.2773L231.148 56.1875H229.262C228.816 56.1875 228.43 56.2383 228.102 56.3398C227.773 56.4414 227.504 56.5859 227.293 56.7734C227.082 56.9531 226.926 57.1641 226.824 57.4062C226.73 57.6484 226.684 57.9141 226.684 58.2031C226.684 58.4922 226.75 58.7539 226.883 58.9883C227.016 59.2148 227.207 59.3945 227.457 59.5273C227.707 59.6523 228 59.7148 228.336 59.7148C228.844 59.7148 229.285 59.6133 229.66 59.4102C230.035 59.207 230.324 58.957 230.527 58.6602C230.738 58.3633 230.848 58.082 230.855 57.8164L231.746 59.2461C231.621 59.5664 231.449 59.8984 231.23 60.2422C231.02 60.5859 230.75 60.9102 230.422 61.2148C230.094 61.5117 229.699 61.7578 229.238 61.9531C228.777 62.1406 228.23 62.2344 227.598 62.2344C226.793 62.2344 226.062 62.0742 225.406 61.7539C224.758 61.4258 224.242 60.9766 223.859 60.4062C223.484 59.8281 223.297 59.1719 223.297 58.4375C223.297 57.7734 223.422 57.1836 223.672 56.668C223.922 56.1523 224.289 55.7188 224.773 55.3672C225.266 55.0078 225.879 54.7383 226.613 54.5586C227.348 54.3711 228.199 54.2773 229.168 54.2773H231.125ZM240.242 44V62H236.855V44H240.242ZM246.594 44V62H243.207V44H246.594ZM255.219 62.2344C254.234 62.2344 253.352 62.0781 252.57 61.7656C251.789 61.4453 251.125 61.0039 250.578 60.4414C250.039 59.8789 249.625 59.2266 249.336 58.4844C249.047 57.7344 248.902 56.9375 248.902 56.0938V55.625C248.902 54.6641 249.039 53.7852 249.312 52.9883C249.586 52.1914 249.977 51.5 250.484 50.9141C251 50.3281 251.625 49.8789 252.359 49.5664C253.094 49.2461 253.922 49.0859 254.844 49.0859C255.742 49.0859 256.539 49.2344 257.234 49.5312C257.93 49.8281 258.512 50.25 258.98 50.7969C259.457 51.3438 259.816 52 260.059 52.7656C260.301 53.5234 260.422 54.3672 260.422 55.2969V56.7031H250.344V54.4531H257.105V54.1953C257.105 53.7266 257.02 53.3086 256.848 52.9414C256.684 52.5664 256.434 52.2695 256.098 52.0508C255.762 51.832 255.332 51.7227 254.809 51.7227C254.363 51.7227 253.98 51.8203 253.66 52.0156C253.34 52.2109 253.078 52.4844 252.875 52.8359C252.68 53.1875 252.531 53.6016 252.43 54.0781C252.336 54.5469 252.289 55.0625 252.289 55.625V56.0938C252.289 56.6016 252.359 57.0703 252.5 57.5C252.648 57.9297 252.855 58.3008 253.121 58.6133C253.395 58.9258 253.723 59.168 254.105 59.3398C254.496 59.5117 254.938 59.5977 255.43 59.5977C256.039 59.5977 256.605 59.4805 257.129 59.2461C257.66 59.0039 258.117 58.6406 258.5 58.1562L260.141 59.9375C259.875 60.3203 259.512 60.6875 259.051 61.0391C258.598 61.3906 258.051 61.6797 257.41 61.9062C256.77 62.125 256.039 62.2344 255.219 62.2344ZM265.648 52.0273V62H262.273V49.3203H265.438L265.648 52.0273ZM265.156 55.2148H264.242C264.242 54.2773 264.363 53.4336 264.605 52.6836C264.848 51.9258 265.188 51.2812 265.625 50.75C266.062 50.2109 266.582 49.8008 267.184 49.5195C267.793 49.2305 268.473 49.0859 269.223 49.0859C269.816 49.0859 270.359 49.1719 270.852 49.3438C271.344 49.5156 271.766 49.7891 272.117 50.1641C272.477 50.5391 272.75 51.0352 272.938 51.6523C273.133 52.2695 273.23 53.0234 273.23 53.9141V62H269.832V53.9023C269.832 53.3398 269.754 52.9023 269.598 52.5898C269.441 52.2773 269.211 52.0586 268.906 51.9336C268.609 51.8008 268.242 51.7344 267.805 51.7344C267.352 51.7344 266.957 51.8242 266.621 52.0039C266.293 52.1836 266.02 52.4336 265.801 52.7539C265.59 53.0664 265.43 53.4336 265.32 53.8555C265.211 54.2773 265.156 54.7305 265.156 55.2148ZM283.824 49.3203H286.883V61.5781C286.883 62.7344 286.625 63.7148 286.109 64.5195C285.602 65.332 284.891 65.9453 283.977 66.3594C283.062 66.7812 282 66.9922 280.789 66.9922C280.258 66.9922 279.695 66.9219 279.102 66.7812C278.516 66.6406 277.953 66.4219 277.414 66.125C276.883 65.8281 276.438 65.4531 276.078 65L277.566 63.0078C277.957 63.4609 278.41 63.8125 278.926 64.0625C279.441 64.3203 280.012 64.4492 280.637 64.4492C281.246 64.4492 281.762 64.3359 282.184 64.1094C282.605 63.8906 282.93 63.5664 283.156 63.1367C283.383 62.7148 283.496 62.2031 283.496 61.6016V52.25L283.824 49.3203ZM275.293 55.8125V55.5664C275.293 54.5977 275.41 53.7188 275.645 52.9297C275.887 52.1328 276.227 51.4492 276.664 50.8789C277.109 50.3086 277.648 49.8672 278.281 49.5547C278.914 49.2422 279.629 49.0859 280.426 49.0859C281.27 49.0859 281.977 49.2422 282.547 49.5547C283.117 49.8672 283.586 50.3125 283.953 50.8906C284.32 51.4609 284.605 52.1367 284.809 52.918C285.02 53.6914 285.184 54.5391 285.301 55.4609V56C285.184 56.8828 285.008 57.7031 284.773 58.4609C284.539 59.2188 284.23 59.8828 283.848 60.4531C283.465 61.0156 282.988 61.4531 282.418 61.7656C281.855 62.0781 281.184 62.2344 280.402 62.2344C279.621 62.2344 278.914 62.0742 278.281 61.7539C277.656 61.4336 277.121 60.9844 276.676 60.4062C276.23 59.8281 275.887 59.1484 275.645 58.3672C275.41 57.5859 275.293 56.7344 275.293 55.8125ZM278.668 55.5664V55.8125C278.668 56.3359 278.719 56.8242 278.82 57.2773C278.922 57.7305 279.078 58.1328 279.289 58.4844C279.508 58.8281 279.777 59.0977 280.098 59.293C280.426 59.4805 280.812 59.5742 281.258 59.5742C281.875 59.5742 282.379 59.4453 282.77 59.1875C283.16 58.9219 283.453 58.5586 283.648 58.0977C283.844 57.6367 283.957 57.1055 283.988 56.5039V54.9688C283.973 54.4766 283.906 54.0352 283.789 53.6445C283.672 53.2461 283.508 52.9062 283.297 52.625C283.086 52.3438 282.812 52.125 282.477 51.9688C282.141 51.8125 281.742 51.7344 281.281 51.7344C280.836 51.7344 280.449 51.8359 280.121 52.0391C279.801 52.2344 279.531 52.5039 279.312 52.8477C279.102 53.1914 278.941 53.5977 278.832 54.0664C278.723 54.5273 278.668 55.0273 278.668 55.5664ZM295.344 62.2344C294.359 62.2344 293.477 62.0781 292.695 61.7656C291.914 61.4453 291.25 61.0039 290.703 60.4414C290.164 59.8789 289.75 59.2266 289.461 58.4844C289.172 57.7344 289.027 56.9375 289.027 56.0938V55.625C289.027 54.6641 289.164 53.7852 289.438 52.9883C289.711 52.1914 290.102 51.5 290.609 50.9141C291.125 50.3281 291.75 49.8789 292.484 49.5664C293.219 49.2461 294.047 49.0859 294.969 49.0859C295.867 49.0859 296.664 49.2344 297.359 49.5312C298.055 49.8281 298.637 50.25 299.105 50.7969C299.582 51.3438 299.941 52 300.184 52.7656C300.426 53.5234 300.547 54.3672 300.547 55.2969V56.7031H290.469V54.4531H297.23V54.1953C297.23 53.7266 297.145 53.3086 296.973 52.9414C296.809 52.5664 296.559 52.2695 296.223 52.0508C295.887 51.832 295.457 51.7227 294.934 51.7227C294.488 51.7227 294.105 51.8203 293.785 52.0156C293.465 52.2109 293.203 52.4844 293 52.8359C292.805 53.1875 292.656 53.6016 292.555 54.0781C292.461 54.5469 292.414 55.0625 292.414 55.625V56.0938C292.414 56.6016 292.484 57.0703 292.625 57.5C292.773 57.9297 292.98 58.3008 293.246 58.6133C293.52 58.9258 293.848 59.168 294.23 59.3398C294.621 59.5117 295.062 59.5977 295.555 59.5977C296.164 59.5977 296.73 59.4805 297.254 59.2461C297.785 59.0039 298.242 58.6406 298.625 58.1562L300.266 59.9375C300 60.3203 299.637 60.6875 299.176 61.0391C298.723 61.3906 298.176 61.6797 297.535 61.9062C296.895 62.125 296.164 62.2344 295.344 62.2344ZM317.785 62V64.5664H307.145V62H317.785ZM325.32 44.9375H331.684C332.988 44.9375 334.109 45.1328 335.047 45.5234C335.992 45.9141 336.719 46.4922 337.227 47.2578C337.734 48.0234 337.988 48.9648 337.988 50.082C337.988 50.9961 337.832 51.7812 337.52 52.4375C337.215 53.0859 336.781 53.6289 336.219 54.0664C335.664 54.4961 335.012 54.8398 334.262 55.0977L333.148 55.6836H327.617L327.594 52.9414H331.707C332.324 52.9414 332.836 52.832 333.242 52.6133C333.648 52.3945 333.953 52.0898 334.156 51.6992C334.367 51.3086 334.473 50.8555 334.473 50.3398C334.473 49.793 334.371 49.3203 334.168 48.9219C333.965 48.5234 333.656 48.2188 333.242 48.0078C332.828 47.7969 332.309 47.6914 331.684 47.6914H328.836V62H325.32V44.9375ZM334.859 62L330.969 54.3945L334.684 54.3711L338.621 61.8359V62H334.859ZM346.32 62.2344C345.336 62.2344 344.453 62.0781 343.672 61.7656C342.891 61.4453 342.227 61.0039 341.68 60.4414C341.141 59.8789 340.727 59.2266 340.438 58.4844C340.148 57.7344 340.004 56.9375 340.004 56.0938V55.625C340.004 54.6641 340.141 53.7852 340.414 52.9883C340.688 52.1914 341.078 51.5 341.586 50.9141C342.102 50.3281 342.727 49.8789 343.461 49.5664C344.195 49.2461 345.023 49.0859 345.945 49.0859C346.844 49.0859 347.641 49.2344 348.336 49.5312C349.031 49.8281 349.613 50.25 350.082 50.7969C350.559 51.3438 350.918 52 351.16 52.7656C351.402 53.5234 351.523 54.3672 351.523 55.2969V56.7031H341.445V54.4531H348.207V54.1953C348.207 53.7266 348.121 53.3086 347.949 52.9414C347.785 52.5664 347.535 52.2695 347.199 52.0508C346.863 51.832 346.434 51.7227 345.91 51.7227C345.465 51.7227 345.082 51.8203 344.762 52.0156C344.441 52.2109 344.18 52.4844 343.977 52.8359C343.781 53.1875 343.633 53.6016 343.531 54.0781C343.438 54.5469 343.391 55.0625 343.391 55.625V56.0938C343.391 56.6016 343.461 57.0703 343.602 57.5C343.75 57.9297 343.957 58.3008 344.223 58.6133C344.496 58.9258 344.824 59.168 345.207 59.3398C345.598 59.5117 346.039 59.5977 346.531 59.5977C347.141 59.5977 347.707 59.4805 348.23 59.2461C348.762 59.0039 349.219 58.6406 349.602 58.1562L351.242 59.9375C350.977 60.3203 350.613 60.6875 350.152 61.0391C349.699 61.3906 349.152 61.6797 348.512 61.9062C347.871 62.125 347.141 62.2344 346.32 62.2344ZM360.289 59.1406V53.4922C360.289 53.0859 360.223 52.7383 360.09 52.4492C359.957 52.1523 359.75 51.9219 359.469 51.7578C359.195 51.5938 358.84 51.5117 358.402 51.5117C358.027 51.5117 357.703 51.5781 357.43 51.7109C357.156 51.8359 356.945 52.0195 356.797 52.2617C356.648 52.4961 356.574 52.7734 356.574 53.0938H353.199C353.199 52.5547 353.324 52.043 353.574 51.5586C353.824 51.0742 354.188 50.6484 354.664 50.2812C355.141 49.9062 355.707 49.6133 356.363 49.4023C357.027 49.1914 357.77 49.0859 358.59 49.0859C359.574 49.0859 360.449 49.25 361.215 49.5781C361.98 49.9062 362.582 50.3984 363.02 51.0547C363.465 51.7109 363.688 52.5312 363.688 53.5156V58.9414C363.688 59.6367 363.73 60.207 363.816 60.6523C363.902 61.0898 364.027 61.4727 364.191 61.8008V62H360.781C360.617 61.6562 360.492 61.2266 360.406 60.7109C360.328 60.1875 360.289 59.6641 360.289 59.1406ZM360.734 54.2773L360.758 56.1875H358.871C358.426 56.1875 358.039 56.2383 357.711 56.3398C357.383 56.4414 357.113 56.5859 356.902 56.7734C356.691 56.9531 356.535 57.1641 356.434 57.4062C356.34 57.6484 356.293 57.9141 356.293 58.2031C356.293 58.4922 356.359 58.7539 356.492 58.9883C356.625 59.2148 356.816 59.3945 357.066 59.5273C357.316 59.6523 357.609 59.7148 357.945 59.7148C358.453 59.7148 358.895 59.6133 359.27 59.4102C359.645 59.207 359.934 58.957 360.137 58.6602C360.348 58.3633 360.457 58.082 360.465 57.8164L361.355 59.2461C361.23 59.5664 361.059 59.8984 360.84 60.2422C360.629 60.5859 360.359 60.9102 360.031 61.2148C359.703 61.5117 359.309 61.7578 358.848 61.9531C358.387 62.1406 357.84 62.2344 357.207 62.2344C356.402 62.2344 355.672 62.0742 355.016 61.7539C354.367 61.4258 353.852 60.9766 353.469 60.4062C353.094 59.8281 352.906 59.1719 352.906 58.4375C352.906 57.7734 353.031 57.1836 353.281 56.668C353.531 56.1523 353.898 55.7188 354.383 55.3672C354.875 55.0078 355.488 54.7383 356.223 54.5586C356.957 54.3711 357.809 54.2773 358.777 54.2773H360.734ZM371.527 59.5977C371.941 59.5977 372.309 59.5195 372.629 59.3633C372.949 59.1992 373.199 58.9727 373.379 58.6836C373.566 58.3867 373.664 58.0391 373.672 57.6406H376.848C376.84 58.5312 376.602 59.3242 376.133 60.0195C375.664 60.707 375.035 61.25 374.246 61.6484C373.457 62.0391 372.574 62.2344 371.598 62.2344C370.613 62.2344 369.754 62.0703 369.02 61.7422C368.293 61.4141 367.688 60.9609 367.203 60.3828C366.719 59.7969 366.355 59.1172 366.113 58.3438C365.871 57.5625 365.75 56.7266 365.75 55.8359V55.4961C365.75 54.5977 365.871 53.7617 366.113 52.9883C366.355 52.207 366.719 51.5273 367.203 50.9492C367.688 50.3633 368.293 49.9062 369.02 49.5781C369.746 49.25 370.598 49.0859 371.574 49.0859C372.613 49.0859 373.523 49.2852 374.305 49.6836C375.094 50.082 375.711 50.6523 376.156 51.3945C376.609 52.1289 376.84 53 376.848 54.0078H373.672C373.664 53.5859 373.574 53.2031 373.402 52.8594C373.238 52.5156 372.996 52.2422 372.676 52.0391C372.363 51.8281 371.977 51.7227 371.516 51.7227C371.023 51.7227 370.621 51.8281 370.309 52.0391C369.996 52.2422 369.754 52.5234 369.582 52.8828C369.41 53.2344 369.289 53.6367 369.219 54.0898C369.156 54.5352 369.125 55.0039 369.125 55.4961V55.8359C369.125 56.3281 369.156 56.8008 369.219 57.2539C369.281 57.707 369.398 58.1094 369.57 58.4609C369.75 58.8125 369.996 59.0898 370.309 59.293C370.621 59.4961 371.027 59.5977 371.527 59.5977ZM385.016 49.3203V51.7109H377.633V49.3203H385.016ZM379.461 46.1914H382.836V58.1797C382.836 58.5469 382.883 58.8281 382.977 59.0234C383.078 59.2188 383.227 59.3555 383.422 59.4336C383.617 59.5039 383.863 59.5391 384.16 59.5391C384.371 59.5391 384.559 59.5312 384.723 59.5156C384.895 59.4922 385.039 59.4688 385.156 59.4453L385.168 61.9297C384.879 62.0234 384.566 62.0977 384.23 62.1523C383.895 62.207 383.523 62.2344 383.117 62.2344C382.375 62.2344 381.727 62.1133 381.172 61.8711C380.625 61.6211 380.203 61.2227 379.906 60.6758C379.609 60.1289 379.461 59.4102 379.461 58.5195V46.1914Z" fill="#888888"/>
<path d="M102.635 86.0078V118H94.9443V86.0078H102.635ZM115.181 99.2573V118H107.776V94.2256H114.72L115.181 99.2573ZM114.28 105.3L112.588 105.344C112.588 103.674 112.786 102.136 113.182 100.729C113.577 99.3232 114.163 98.1001 114.939 97.0601C115.716 96.02 116.668 95.2144 117.796 94.6431C118.938 94.0718 120.257 93.7861 121.751 93.7861C122.791 93.7861 123.736 93.9473 124.585 94.2695C125.435 94.5771 126.167 95.0679 126.783 95.7417C127.398 96.4009 127.867 97.2651 128.189 98.3345C128.526 99.3892 128.694 100.656 128.694 102.136V118H121.29V103.081C121.29 102.07 121.172 101.308 120.938 100.795C120.718 100.283 120.396 99.9385 119.971 99.7627C119.546 99.5869 119.026 99.499 118.411 99.499C117.767 99.499 117.188 99.6455 116.675 99.9385C116.163 100.231 115.723 100.642 115.357 101.169C115.005 101.682 114.734 102.29 114.544 102.993C114.368 103.696 114.28 104.465 114.28 105.3ZM127.859 105.3L125.794 105.344C125.794 103.674 125.977 102.136 126.343 100.729C126.724 99.3232 127.288 98.1001 128.035 97.0601C128.797 96.02 129.742 95.2144 130.87 94.6431C131.998 94.0718 133.309 93.7861 134.803 93.7861C135.887 93.7861 136.883 93.9473 137.791 94.2695C138.699 94.5918 139.483 95.1118 140.142 95.8296C140.801 96.5474 141.314 97.4995 141.68 98.686C142.046 99.8579 142.229 101.308 142.229 103.037V118H134.803V103.037C134.803 102.055 134.686 101.315 134.451 100.817C134.231 100.305 133.909 99.9604 133.484 99.7847C133.06 99.5942 132.554 99.499 131.968 99.499C131.265 99.499 130.657 99.6455 130.145 99.9385C129.632 100.231 129.2 100.642 128.848 101.169C128.511 101.682 128.262 102.29 128.101 102.993C127.94 103.696 127.859 104.465 127.859 105.3ZM153.941 98.7959V127.141H146.536V94.2256H153.436L153.941 98.7959ZM168.531 105.827V106.289C168.531 108.017 168.333 109.621 167.938 111.101C167.542 112.58 166.956 113.869 166.18 114.968C165.403 116.066 164.437 116.923 163.279 117.539C162.137 118.139 160.811 118.439 159.302 118.439C157.881 118.439 156.658 118.125 155.633 117.495C154.607 116.865 153.75 115.993 153.062 114.88C152.374 113.767 151.817 112.492 151.392 111.057C150.967 109.621 150.63 108.105 150.381 106.508V105.915C150.63 104.201 150.967 102.612 151.392 101.147C151.817 99.6675 152.374 98.3784 153.062 97.2798C153.75 96.1812 154.6 95.3242 155.611 94.709C156.636 94.0938 157.859 93.7861 159.28 93.7861C160.789 93.7861 162.115 94.0718 163.257 94.6431C164.415 95.2144 165.381 96.0347 166.158 97.104C166.949 98.1587 167.542 99.4258 167.938 100.905C168.333 102.385 168.531 104.025 168.531 105.827ZM161.126 106.289V105.827C161.126 104.904 161.06 104.062 160.928 103.3C160.796 102.524 160.584 101.85 160.291 101.279C160.013 100.708 159.639 100.268 159.17 99.9604C158.702 99.6528 158.123 99.499 157.435 99.499C156.644 99.499 155.977 99.6235 155.435 99.8726C154.908 100.107 154.483 100.473 154.161 100.971C153.853 101.455 153.633 102.062 153.501 102.795C153.384 103.513 153.333 104.355 153.348 105.322V107.124C153.318 108.237 153.428 109.218 153.677 110.068C153.926 110.903 154.358 111.555 154.974 112.023C155.589 112.492 156.424 112.727 157.479 112.727C158.182 112.727 158.768 112.565 159.236 112.243C159.705 111.906 160.079 111.445 160.357 110.859C160.635 110.258 160.833 109.57 160.95 108.793C161.067 108.017 161.126 107.182 161.126 106.289ZM179.649 84.25V118H172.222V84.25H179.649ZM195.733 118.439C193.799 118.439 192.071 118.139 190.547 117.539C189.024 116.923 187.735 116.081 186.68 115.012C185.64 113.942 184.842 112.712 184.285 111.32C183.743 109.929 183.472 108.457 183.472 106.904V106.069C183.472 104.326 183.714 102.714 184.197 101.235C184.681 99.7407 185.398 98.437 186.351 97.3237C187.303 96.2104 188.497 95.3462 189.932 94.731C191.368 94.1011 193.038 93.7861 194.942 93.7861C196.626 93.7861 198.135 94.0571 199.468 94.5991C200.801 95.1411 201.929 95.9175 202.852 96.9282C203.79 97.939 204.5 99.1621 204.983 100.598C205.481 102.033 205.73 103.645 205.73 105.432V108.442H186.307V103.806H198.501V103.234C198.516 102.443 198.377 101.77 198.084 101.213C197.806 100.656 197.396 100.231 196.854 99.9385C196.312 99.6455 195.652 99.499 194.876 99.499C194.07 99.499 193.404 99.6748 192.876 100.026C192.364 100.378 191.961 100.861 191.668 101.477C191.39 102.077 191.192 102.773 191.075 103.564C190.958 104.355 190.899 105.19 190.899 106.069V106.904C190.899 107.783 191.016 108.581 191.25 109.299C191.5 110.017 191.851 110.632 192.305 111.145C192.774 111.643 193.331 112.031 193.975 112.309C194.634 112.587 195.381 112.727 196.216 112.727C197.227 112.727 198.223 112.536 199.205 112.155C200.186 111.774 201.028 111.145 201.731 110.266L205.093 114.265C204.61 114.953 203.921 115.62 203.028 116.264C202.149 116.909 201.094 117.436 199.864 117.846C198.633 118.242 197.256 118.439 195.733 118.439ZM216.211 99.2573V118H208.807V94.2256H215.75L216.211 99.2573ZM215.311 105.3L213.619 105.344C213.619 103.674 213.816 102.136 214.212 100.729C214.607 99.3232 215.193 98.1001 215.97 97.0601C216.746 96.02 217.698 95.2144 218.826 94.6431C219.969 94.0718 221.287 93.7861 222.781 93.7861C223.821 93.7861 224.766 93.9473 225.616 94.2695C226.465 94.5771 227.198 95.0679 227.813 95.7417C228.428 96.4009 228.897 97.2651 229.219 98.3345C229.556 99.3892 229.725 100.656 229.725 102.136V118H222.32V103.081C222.32 102.07 222.203 101.308 221.968 100.795C221.749 100.283 221.426 99.9385 221.001 99.7627C220.577 99.5869 220.057 99.499 219.441 99.499C218.797 99.499 218.218 99.6455 217.706 99.9385C217.193 100.231 216.753 100.642 216.387 101.169C216.036 101.682 215.765 102.29 215.574 102.993C215.398 103.696 215.311 104.465 215.311 105.3ZM228.89 105.3L226.824 105.344C226.824 103.674 227.007 102.136 227.374 100.729C227.754 99.3232 228.318 98.1001 229.065 97.0601C229.827 96.02 230.772 95.2144 231.9 94.6431C233.028 94.0718 234.339 93.7861 235.833 93.7861C236.917 93.7861 237.913 93.9473 238.821 94.2695C239.729 94.5918 240.513 95.1118 241.172 95.8296C241.832 96.5474 242.344 97.4995 242.71 98.686C243.077 99.8579 243.26 101.308 243.26 103.037V118H235.833V103.037C235.833 102.055 235.716 101.315 235.481 100.817C235.262 100.305 234.939 99.9604 234.515 99.7847C234.09 99.5942 233.584 99.499 232.999 99.499C232.295 99.499 231.688 99.6455 231.175 99.9385C230.662 100.231 230.23 100.642 229.878 101.169C229.542 101.682 229.292 102.29 229.131 102.993C228.97 103.696 228.89 104.465 228.89 105.3ZM259.014 118.439C257.081 118.439 255.352 118.139 253.829 117.539C252.305 116.923 251.016 116.081 249.961 115.012C248.921 113.942 248.123 112.712 247.566 111.32C247.024 109.929 246.753 108.457 246.753 106.904V106.069C246.753 104.326 246.995 102.714 247.479 101.235C247.962 99.7407 248.68 98.437 249.632 97.3237C250.584 96.2104 251.778 95.3462 253.213 94.731C254.649 94.1011 256.319 93.7861 258.223 93.7861C259.908 93.7861 261.417 94.0571 262.75 94.5991C264.083 95.1411 265.21 95.9175 266.133 96.9282C267.071 97.939 267.781 99.1621 268.265 100.598C268.763 102.033 269.012 103.645 269.012 105.432V108.442H249.588V103.806H261.783V103.234C261.797 102.443 261.658 101.77 261.365 101.213C261.087 100.656 260.677 100.231 260.135 99.9385C259.593 99.6455 258.934 99.499 258.157 99.499C257.352 99.499 256.685 99.6748 256.158 100.026C255.645 100.378 255.242 100.861 254.949 101.477C254.671 102.077 254.473 102.773 254.356 103.564C254.239 104.355 254.18 105.19 254.18 106.069V106.904C254.18 107.783 254.297 108.581 254.532 109.299C254.781 110.017 255.132 110.632 255.586 111.145C256.055 111.643 256.612 112.031 257.256 112.309C257.916 112.587 258.663 112.727 259.498 112.727C260.508 112.727 261.504 112.536 262.486 112.155C263.467 111.774 264.31 111.145 265.013 110.266L268.375 114.265C267.891 114.953 267.203 115.62 266.309 116.264C265.43 116.909 264.375 117.436 263.145 117.846C261.915 118.242 260.538 118.439 259.014 118.439ZM279.295 99.3013V118H271.89V94.2256H278.833L279.295 99.3013ZM278.416 105.3L276.68 105.344C276.68 103.527 276.9 101.909 277.339 100.488C277.779 99.0522 278.401 97.8364 279.207 96.8403C280.013 95.8442 280.972 95.0898 282.085 94.5771C283.213 94.0498 284.466 93.7861 285.843 93.7861C286.941 93.7861 287.945 93.9473 288.853 94.2695C289.776 94.5918 290.567 95.1118 291.226 95.8296C291.9 96.5474 292.413 97.4995 292.764 98.686C293.13 99.8579 293.313 101.308 293.313 103.037V118H285.865V103.015C285.865 102.062 285.733 101.337 285.469 100.839C285.206 100.327 284.825 99.9751 284.327 99.7847C283.829 99.5942 283.221 99.499 282.503 99.499C281.741 99.499 281.097 99.6455 280.569 99.9385C280.042 100.231 279.617 100.642 279.295 101.169C278.987 101.682 278.76 102.29 278.614 102.993C278.482 103.696 278.416 104.465 278.416 105.3ZM309.947 94.2256V99.3672H295.621V94.2256H309.947ZM298.631 88.3149H306.036V110.244C306.036 110.874 306.109 111.364 306.255 111.716C306.402 112.053 306.651 112.294 307.002 112.441C307.369 112.573 307.852 112.639 308.453 112.639C308.877 112.639 309.229 112.631 309.507 112.617C309.786 112.587 310.049 112.551 310.298 112.507V117.802C309.668 118.007 309.009 118.161 308.321 118.264C307.632 118.381 306.9 118.439 306.124 118.439C304.542 118.439 303.187 118.19 302.059 117.692C300.945 117.194 300.096 116.411 299.51 115.341C298.924 114.272 298.631 112.88 298.631 111.167V88.3149ZM325.24 112.023V102.224C325.24 101.55 325.145 100.971 324.954 100.488C324.764 100.004 324.463 99.6309 324.053 99.3672C323.643 99.0889 323.094 98.9497 322.405 98.9497C321.849 98.9497 321.373 99.0449 320.977 99.2354C320.582 99.4258 320.281 99.7114 320.076 100.092C319.871 100.473 319.769 100.957 319.769 101.542H312.364C312.364 100.444 312.605 99.4258 313.089 98.4883C313.587 97.5361 314.29 96.7085 315.198 96.0054C316.121 95.3022 317.22 94.7603 318.494 94.3794C319.783 93.9839 321.219 93.7861 322.801 93.7861C324.69 93.7861 326.375 94.1011 327.854 94.731C329.349 95.3608 330.528 96.3057 331.392 97.5654C332.256 98.8105 332.688 100.378 332.688 102.268V112.001C332.688 113.554 332.776 114.733 332.952 115.539C333.128 116.33 333.377 117.026 333.699 117.626V118H326.272C325.921 117.268 325.657 116.374 325.481 115.319C325.32 114.25 325.24 113.151 325.24 112.023ZM326.141 103.476L326.185 107.431H322.911C322.222 107.431 321.636 107.526 321.153 107.717C320.684 107.907 320.303 108.171 320.01 108.508C319.732 108.83 319.527 109.196 319.395 109.606C319.278 110.017 319.219 110.449 319.219 110.903C319.219 111.342 319.322 111.738 319.527 112.089C319.747 112.426 320.04 112.69 320.406 112.88C320.772 113.071 321.182 113.166 321.636 113.166C322.457 113.166 323.152 113.012 323.724 112.705C324.31 112.382 324.756 111.994 325.064 111.54C325.372 111.086 325.525 110.661 325.525 110.266L327.151 113.298C326.858 113.884 326.521 114.477 326.141 115.078C325.774 115.678 325.313 116.235 324.756 116.748C324.214 117.246 323.548 117.656 322.757 117.978C321.966 118.286 321.006 118.439 319.878 118.439C318.414 118.439 317.066 118.139 315.835 117.539C314.62 116.938 313.646 116.103 312.913 115.034C312.181 113.95 311.814 112.705 311.814 111.298C311.814 110.068 312.034 108.969 312.474 108.002C312.928 107.036 313.609 106.215 314.517 105.542C315.425 104.868 316.583 104.355 317.989 104.003C319.395 103.652 321.05 103.476 322.955 103.476H326.141ZM349.322 94.2256V99.3672H334.996V94.2256H349.322ZM338.006 88.3149H345.411V110.244C345.411 110.874 345.484 111.364 345.63 111.716C345.777 112.053 346.026 112.294 346.377 112.441C346.744 112.573 347.227 112.639 347.828 112.639C348.252 112.639 348.604 112.631 348.882 112.617C349.161 112.587 349.424 112.551 349.673 112.507V117.802C349.043 118.007 348.384 118.161 347.696 118.264C347.007 118.381 346.275 118.439 345.499 118.439C343.917 118.439 342.562 118.19 341.434 117.692C340.32 117.194 339.471 116.411 338.885 115.341C338.299 114.272 338.006 112.88 338.006 111.167V88.3149ZM360.088 94.2256V118H352.662V94.2256H360.088ZM352.222 88.0952C352.222 87.0405 352.603 86.1763 353.365 85.5024C354.126 84.8286 355.115 84.4917 356.331 84.4917C357.547 84.4917 358.536 84.8286 359.297 85.5024C360.059 86.1763 360.44 87.0405 360.44 88.0952C360.44 89.1499 360.059 90.0142 359.297 90.688C358.536 91.3618 357.547 91.6987 356.331 91.6987C355.115 91.6987 354.126 91.3618 353.365 90.688C352.603 90.0142 352.222 89.1499 352.222 88.0952ZM363.736 106.354V105.893C363.736 104.15 363.985 102.546 364.483 101.081C364.981 99.6016 365.713 98.3198 366.68 97.2358C367.647 96.1519 368.841 95.3096 370.262 94.709C371.683 94.0938 373.323 93.7861 375.184 93.7861C377.059 93.7861 378.707 94.0938 380.127 94.709C381.563 95.3096 382.764 96.1519 383.731 97.2358C384.698 98.3198 385.43 99.6016 385.928 101.081C386.426 102.546 386.675 104.15 386.675 105.893V106.354C386.675 108.083 386.426 109.687 385.928 111.167C385.43 112.631 384.698 113.913 383.731 115.012C382.764 116.096 381.57 116.938 380.149 117.539C378.729 118.139 377.088 118.439 375.228 118.439C373.367 118.439 371.719 118.139 370.284 117.539C368.848 116.938 367.647 116.096 366.68 115.012C365.713 113.913 364.981 112.631 364.483 111.167C363.985 109.687 363.736 108.083 363.736 106.354ZM371.141 105.893V106.354C371.141 107.248 371.207 108.083 371.338 108.859C371.47 109.636 371.69 110.317 371.998 110.903C372.305 111.474 372.723 111.921 373.25 112.243C373.777 112.565 374.437 112.727 375.228 112.727C376.004 112.727 376.648 112.565 377.161 112.243C377.688 111.921 378.106 111.474 378.414 110.903C378.721 110.317 378.941 109.636 379.073 108.859C379.205 108.083 379.271 107.248 379.271 106.354V105.893C379.271 105.029 379.205 104.216 379.073 103.454C378.941 102.678 378.721 101.997 378.414 101.411C378.106 100.81 377.688 100.341 377.161 100.004C376.634 99.6675 375.975 99.499 375.184 99.499C374.407 99.499 373.755 99.6675 373.228 100.004C372.715 100.341 372.305 100.81 371.998 101.411C371.69 101.997 371.47 102.678 371.338 103.454C371.207 104.216 371.141 105.029 371.141 105.893ZM397.244 99.3013V118H389.839V94.2256H396.783L397.244 99.3013ZM396.365 105.3L394.629 105.344C394.629 103.527 394.849 101.909 395.289 100.488C395.728 99.0522 396.351 97.8364 397.156 96.8403C397.962 95.8442 398.921 95.0898 400.035 94.5771C401.163 94.0498 402.415 93.7861 403.792 93.7861C404.891 93.7861 405.894 93.9473 406.802 94.2695C407.725 94.5918 408.516 95.1118 409.175 95.8296C409.849 96.5474 410.362 97.4995 410.713 98.686C411.08 99.8579 411.263 101.308 411.263 103.037V118H403.814V103.015C403.814 102.062 403.682 101.337 403.418 100.839C403.155 100.327 402.774 99.9751 402.276 99.7847C401.778 99.5942 401.17 99.499 400.452 99.499C399.69 99.499 399.046 99.6455 398.519 99.9385C397.991 100.231 397.566 100.642 397.244 101.169C396.937 101.682 396.709 102.29 396.563 102.993C396.431 103.696 396.365 104.465 396.365 105.3Z" fill="#424241"/>
<path d="M1363 15C1363 6.71573 1356.28 0 1348 0H1134V167H1348C1356.28 167 1363 160.284 1363 152V15Z" fill="#3AD514"/>
<path d="M1281.5 49H1216.5L1214 51.5V116.5L1216.5 119H1281.5L1284 116.5V51.5L1281.5 49ZM1279 114H1234V104H1245.5C1247 107 1250.5 109 1254 109C1259.5 109 1264 104.5 1264 99C1264 93.5 1259.5 89 1254 89C1248.5 89 1244 93.5 1244 99H1229V114H1219V54H1229V65.5C1226 67 1224 70.5 1224 74C1224 79.5 1228.5 84 1234 84C1239.5 84 1244 79.5 1244 74H1254C1254 79.5 1258.5 84 1264 84C1269.5 84 1274 79.5 1274 74C1274 68.5 1269.5 64 1264 64C1260.5 64 1257 66 1255.5 69H1242.5C1241 66 1237.5 64 1234 64V54H1279V114ZM1249 99C1249 96 1251 94 1254 94C1257 94 1259 96 1259 99C1259 102 1257 104 1254 104C1251 104 1249 102 1249 99ZM1234 69C1237 69 1239 71 1239 74C1239 77 1237 79 1234 79C1231 79 1229 77 1229 74C1229 71 1231 69 1234 69ZM1264 69C1267 69 1269 71 1269 74C1269 77 1267 79 1264 79C1261 79 1259 77 1259 74C1259 71 1261 69 1264 69Z" fill="white"/>
</svg>
