<svg width="1363" height="301" viewBox="0 0 1363 301" fill="none" xmlns="http://www.w3.org/2000/svg">
<rect width="1363" height="301" rx="15" fill="#F0F0F0"/>
<path d="M0 15C0 6.71573 6.71573 0 15 0H37V301H15C6.71573 301 0 294.284 0 286V15Z" fill="#3AD514"/>
<path d="M115.123 133.607C115.123 132.998 115.033 132.452 114.854 131.969C114.675 131.467 114.344 131.002 113.86 130.572C113.377 130.143 112.679 129.713 111.766 129.283C110.87 128.836 109.689 128.37 108.221 127.887C106.502 127.314 104.846 126.669 103.252 125.953C101.659 125.219 100.236 124.369 98.9824 123.402C97.7292 122.417 96.7355 121.271 96.0015 119.964C95.2674 118.639 94.9004 117.1 94.9004 115.345C94.9004 113.662 95.2764 112.149 96.0283 110.807C96.7803 109.446 97.8276 108.291 99.1704 107.342C100.531 106.375 102.125 105.641 103.951 105.14C105.777 104.621 107.773 104.361 109.939 104.361C112.804 104.361 115.328 104.863 117.513 105.865C119.715 106.85 121.434 108.255 122.669 110.082C123.922 111.89 124.549 114.029 124.549 116.5H115.176C115.176 115.515 114.97 114.647 114.559 113.895C114.165 113.143 113.565 112.552 112.759 112.123C111.954 111.693 110.942 111.478 109.725 111.478C108.543 111.478 107.549 111.657 106.744 112.015C105.938 112.373 105.329 112.857 104.917 113.465C104.506 114.056 104.3 114.71 104.3 115.426C104.3 116.017 104.461 116.554 104.783 117.037C105.123 117.503 105.598 117.941 106.207 118.353C106.833 118.765 107.585 119.159 108.462 119.535C109.358 119.911 110.36 120.278 111.47 120.636C113.547 121.298 115.391 122.041 117.002 122.865C118.632 123.67 120.001 124.592 121.111 125.631C122.239 126.651 123.09 127.815 123.663 129.122C124.253 130.429 124.549 131.906 124.549 133.553C124.549 135.308 124.209 136.865 123.528 138.226C122.848 139.587 121.872 140.742 120.601 141.69C119.33 142.621 117.808 143.329 116.036 143.812C114.263 144.295 112.285 144.537 110.101 144.537C108.095 144.537 106.117 144.286 104.166 143.785C102.232 143.266 100.477 142.478 98.9019 141.422C97.3263 140.348 96.0641 138.978 95.1152 137.313C94.1842 135.63 93.7188 133.634 93.7188 131.324H103.172C103.172 132.47 103.324 133.437 103.628 134.225C103.933 135.012 104.38 135.648 104.971 136.131C105.562 136.597 106.287 136.937 107.146 137.152C108.006 137.349 108.991 137.447 110.101 137.447C111.3 137.447 112.267 137.277 113.001 136.937C113.735 136.579 114.272 136.113 114.612 135.541C114.952 134.95 115.123 134.305 115.123 133.607ZM138.111 120.528V155.172H129.061V114.942H137.493L138.111 120.528ZM155.943 129.122V129.686C155.943 131.799 155.701 133.759 155.218 135.567C154.734 137.376 154.018 138.951 153.069 140.294C152.12 141.637 150.939 142.684 149.524 143.436C148.128 144.17 146.508 144.537 144.664 144.537C142.927 144.537 141.432 144.152 140.179 143.382C138.925 142.612 137.878 141.547 137.037 140.187C136.195 138.826 135.515 137.268 134.996 135.514C134.476 133.759 134.065 131.906 133.76 129.955V129.229C134.065 127.135 134.476 125.192 134.996 123.402C135.515 121.594 136.195 120.018 137.037 118.675C137.878 117.333 138.917 116.285 140.152 115.533C141.405 114.781 142.9 114.405 144.637 114.405C146.481 114.405 148.101 114.754 149.498 115.453C150.912 116.151 152.094 117.153 153.042 118.46C154.009 119.75 154.734 121.298 155.218 123.106C155.701 124.915 155.943 126.92 155.943 129.122ZM146.893 129.686V129.122C146.893 127.994 146.812 126.965 146.651 126.034C146.49 125.085 146.23 124.261 145.872 123.563C145.532 122.865 145.075 122.328 144.502 121.952C143.93 121.576 143.222 121.388 142.381 121.388C141.414 121.388 140.599 121.54 139.937 121.844C139.292 122.131 138.773 122.578 138.379 123.187C138.003 123.778 137.735 124.521 137.574 125.416C137.431 126.293 137.368 127.323 137.386 128.504V130.707C137.35 132.067 137.484 133.267 137.789 134.305C138.093 135.326 138.621 136.122 139.373 136.695C140.125 137.268 141.146 137.555 142.435 137.555C143.294 137.555 144.01 137.358 144.583 136.964C145.156 136.552 145.612 135.988 145.953 135.272C146.293 134.538 146.535 133.696 146.678 132.748C146.821 131.799 146.893 130.778 146.893 129.686ZM158.843 129.767V129.203C158.843 127.072 159.148 125.112 159.756 123.321C160.365 121.513 161.26 119.946 162.442 118.622C163.624 117.297 165.083 116.267 166.819 115.533C168.556 114.781 170.561 114.405 172.835 114.405C175.127 114.405 177.141 114.781 178.877 115.533C180.632 116.267 182.1 117.297 183.282 118.622C184.463 119.946 185.359 121.513 185.967 123.321C186.576 125.112 186.88 127.072 186.88 129.203V129.767C186.88 131.879 186.576 133.84 185.967 135.648C185.359 137.438 184.463 139.005 183.282 140.348C182.1 141.673 180.641 142.702 178.904 143.436C177.168 144.17 175.162 144.537 172.889 144.537C170.615 144.537 168.601 144.17 166.846 143.436C165.092 142.702 163.624 141.673 162.442 140.348C161.26 139.005 160.365 137.438 159.756 135.648C159.148 133.84 158.843 131.879 158.843 129.767ZM167.894 129.203V129.767C167.894 130.859 167.974 131.879 168.135 132.828C168.296 133.777 168.565 134.61 168.941 135.326C169.317 136.024 169.827 136.57 170.472 136.964C171.116 137.358 171.922 137.555 172.889 137.555C173.838 137.555 174.625 137.358 175.252 136.964C175.896 136.57 176.407 136.024 176.783 135.326C177.159 134.61 177.427 133.777 177.588 132.828C177.75 131.879 177.83 130.859 177.83 129.767V129.203C177.83 128.146 177.75 127.153 177.588 126.222C177.427 125.273 177.159 124.44 176.783 123.724C176.407 122.99 175.896 122.417 175.252 122.005C174.607 121.594 173.802 121.388 172.835 121.388C171.886 121.388 171.089 121.594 170.445 122.005C169.818 122.417 169.317 122.99 168.941 123.724C168.565 124.44 168.296 125.273 168.135 126.222C167.974 127.153 167.894 128.146 167.894 129.203ZM206.216 114.942V121.227H188.707V114.942H206.216ZM192.386 107.718H201.436V134.52C201.436 135.29 201.526 135.89 201.705 136.319C201.884 136.731 202.188 137.027 202.618 137.206C203.065 137.367 203.656 137.447 204.39 137.447C204.909 137.447 205.339 137.438 205.679 137.42C206.019 137.385 206.342 137.34 206.646 137.286V143.758C205.876 144.009 205.07 144.197 204.229 144.322C203.388 144.465 202.492 144.537 201.543 144.537C199.61 144.537 197.954 144.233 196.575 143.624C195.215 143.015 194.176 142.057 193.46 140.75C192.744 139.444 192.386 137.743 192.386 135.648V107.718ZM219.375 114.942V144H210.298V114.942H219.375ZM209.761 107.45C209.761 106.161 210.227 105.104 211.158 104.281C212.089 103.457 213.297 103.045 214.783 103.045C216.269 103.045 217.478 103.457 218.409 104.281C219.34 105.104 219.805 106.161 219.805 107.45C219.805 108.739 219.34 109.795 218.409 110.619C217.478 111.442 216.269 111.854 214.783 111.854C213.297 111.854 212.089 111.442 211.158 110.619C210.227 109.795 209.761 108.739 209.761 107.45ZM236.053 144H226.949V112.579C226.949 110.323 227.405 108.425 228.318 106.886C229.231 105.346 230.521 104.182 232.186 103.395C233.851 102.589 235.82 102.186 238.094 102.186C238.882 102.186 239.625 102.24 240.323 102.347C241.021 102.455 241.701 102.589 242.364 102.75L242.391 109.41C242.068 109.321 241.737 109.258 241.397 109.222C241.057 109.186 240.636 109.168 240.135 109.168C239.257 109.168 238.514 109.303 237.906 109.571C237.297 109.822 236.832 110.207 236.509 110.726C236.205 111.227 236.053 111.845 236.053 112.579V144ZM241.692 114.942V121.227H222.759V114.942H241.692ZM253.858 140.589L261.377 114.942H271.099L259.417 148.324C259.166 149.058 258.835 149.846 258.423 150.687C258.012 151.546 257.448 152.361 256.731 153.131C256.015 153.901 255.093 154.527 253.965 155.011C252.855 155.494 251.477 155.736 249.83 155.736C248.952 155.736 248.308 155.691 247.896 155.602C247.502 155.53 246.893 155.396 246.07 155.199V148.727C246.303 148.727 246.5 148.727 246.661 148.727C246.84 148.727 247.037 148.727 247.251 148.727C248.218 148.727 248.988 148.628 249.561 148.431C250.152 148.234 250.599 147.948 250.904 147.572C251.226 147.196 251.477 146.739 251.656 146.202L253.858 140.589ZM251.951 114.942L257.671 135.272L258.665 144.859H252.596L242.256 114.942H251.951ZM309.825 130.76H319.224C319.099 133.482 318.365 135.881 317.022 137.958C315.679 140.034 313.817 141.655 311.436 142.818C309.073 143.964 306.28 144.537 303.057 144.537C300.443 144.537 298.107 144.098 296.048 143.221C294.007 142.344 292.27 141.082 290.838 139.435C289.424 137.787 288.34 135.791 287.588 133.446C286.854 131.1 286.487 128.46 286.487 125.523V123.402C286.487 120.466 286.872 117.825 287.642 115.479C288.43 113.116 289.54 111.111 290.972 109.464C292.422 107.799 294.159 106.528 296.182 105.65C298.205 104.773 300.452 104.334 302.923 104.334C306.325 104.334 309.198 104.943 311.543 106.161C313.889 107.378 315.706 109.052 316.995 111.183C318.284 113.295 319.045 115.703 319.278 118.407H309.878C309.843 116.939 309.592 115.712 309.126 114.728C308.661 113.725 307.927 112.973 306.924 112.472C305.922 111.97 304.588 111.72 302.923 111.72C301.759 111.72 300.748 111.935 299.888 112.364C299.029 112.794 298.313 113.474 297.74 114.405C297.167 115.336 296.737 116.545 296.451 118.031C296.182 119.499 296.048 121.271 296.048 123.348V125.523C296.048 127.6 296.173 129.373 296.424 130.841C296.674 132.309 297.077 133.508 297.632 134.439C298.187 135.37 298.903 136.06 299.781 136.507C300.676 136.937 301.768 137.152 303.057 137.152C304.489 137.152 305.698 136.928 306.683 136.48C307.667 136.015 308.428 135.317 308.965 134.386C309.502 133.437 309.789 132.228 309.825 130.76ZM332.115 102.75V144H323.064V102.75H332.115ZM331.041 128.478L328.919 128.531C328.919 126.49 329.17 124.61 329.671 122.892C330.172 121.173 330.888 119.678 331.819 118.407C332.75 117.136 333.869 116.151 335.176 115.453C336.483 114.754 337.933 114.405 339.527 114.405C340.959 114.405 342.266 114.611 343.448 115.023C344.647 115.435 345.677 116.097 346.536 117.01C347.413 117.923 348.085 119.114 348.55 120.582C349.034 122.05 349.275 123.84 349.275 125.953V144H340.171V125.899C340.171 124.718 340.001 123.805 339.661 123.16C339.339 122.498 338.873 122.041 338.265 121.791C337.656 121.522 336.913 121.388 336.036 121.388C334.979 121.388 334.12 121.567 333.458 121.925C332.795 122.283 332.285 122.784 331.927 123.429C331.587 124.055 331.354 124.798 331.229 125.658C331.103 126.517 331.041 127.457 331.041 128.478ZM369.39 136.695V124.718C369.39 123.894 369.274 123.187 369.041 122.596C368.808 122.005 368.441 121.549 367.94 121.227C367.439 120.886 366.767 120.716 365.926 120.716C365.245 120.716 364.664 120.833 364.18 121.065C363.697 121.298 363.33 121.647 363.079 122.113C362.828 122.578 362.703 123.169 362.703 123.885H353.653C353.653 122.542 353.948 121.298 354.539 120.152C355.148 118.989 356.007 117.977 357.117 117.118C358.245 116.258 359.588 115.596 361.146 115.13C362.721 114.647 364.476 114.405 366.409 114.405C368.719 114.405 370.778 114.79 372.586 115.56C374.412 116.33 375.853 117.485 376.91 119.024C377.966 120.546 378.494 122.462 378.494 124.771V136.668C378.494 138.566 378.602 140.007 378.816 140.992C379.031 141.959 379.336 142.809 379.729 143.543V144H370.652C370.223 143.105 369.9 142.013 369.686 140.724C369.489 139.417 369.39 138.074 369.39 136.695ZM370.491 126.249L370.545 131.083H366.543C365.702 131.083 364.986 131.199 364.395 131.432C363.822 131.664 363.357 131.987 362.999 132.398C362.658 132.792 362.408 133.24 362.247 133.741C362.103 134.243 362.032 134.771 362.032 135.326C362.032 135.863 362.157 136.346 362.408 136.776C362.676 137.188 363.034 137.51 363.482 137.743C363.93 137.975 364.431 138.092 364.986 138.092C365.988 138.092 366.839 137.904 367.537 137.528C368.253 137.134 368.799 136.66 369.175 136.104C369.551 135.549 369.739 135.03 369.739 134.547L371.727 138.253C371.368 138.969 370.957 139.694 370.491 140.428C370.044 141.162 369.48 141.843 368.799 142.469C368.137 143.078 367.322 143.579 366.355 143.973C365.389 144.349 364.216 144.537 362.837 144.537C361.047 144.537 359.4 144.17 357.896 143.436C356.41 142.702 355.219 141.681 354.324 140.375C353.429 139.05 352.981 137.528 352.981 135.809C352.981 134.305 353.25 132.962 353.787 131.781C354.342 130.599 355.175 129.597 356.285 128.773C357.395 127.949 358.809 127.323 360.528 126.893C362.247 126.463 364.27 126.249 366.597 126.249H370.491ZM393.077 102.75V144H384V102.75H393.077ZM408.223 102.75V144H399.146V102.75H408.223ZM427.881 144.537C425.518 144.537 423.405 144.17 421.543 143.436C419.681 142.684 418.106 141.655 416.817 140.348C415.546 139.041 414.57 137.537 413.89 135.836C413.227 134.135 412.896 132.336 412.896 130.438V129.417C412.896 127.287 413.191 125.318 413.782 123.509C414.373 121.683 415.25 120.09 416.414 118.729C417.578 117.368 419.037 116.312 420.792 115.56C422.546 114.79 424.587 114.405 426.915 114.405C428.973 114.405 430.818 114.736 432.447 115.399C434.076 116.061 435.455 117.01 436.583 118.246C437.728 119.481 438.597 120.976 439.188 122.73C439.796 124.485 440.101 126.454 440.101 128.639V132.318H416.36V126.651H431.265V125.953C431.283 124.986 431.113 124.163 430.755 123.482C430.415 122.802 429.913 122.283 429.251 121.925C428.589 121.567 427.783 121.388 426.834 121.388C425.849 121.388 425.035 121.603 424.39 122.032C423.764 122.462 423.271 123.053 422.913 123.805C422.573 124.539 422.331 125.389 422.188 126.356C422.045 127.323 421.973 128.343 421.973 129.417V130.438C421.973 131.512 422.116 132.488 422.403 133.365C422.707 134.243 423.137 134.994 423.692 135.621C424.265 136.23 424.945 136.704 425.733 137.044C426.539 137.385 427.452 137.555 428.472 137.555C429.708 137.555 430.925 137.322 432.125 136.856C433.324 136.391 434.354 135.621 435.213 134.547L439.322 139.435C438.731 140.276 437.889 141.091 436.797 141.878C435.723 142.666 434.434 143.311 432.93 143.812C431.426 144.295 429.743 144.537 427.881 144.537ZM452.669 121.146V144H443.619V114.942H452.105L452.669 121.146ZM451.595 128.478L449.473 128.531C449.473 126.311 449.742 124.333 450.279 122.596C450.816 120.842 451.577 119.356 452.562 118.138C453.546 116.921 454.719 115.999 456.08 115.372C457.458 114.728 458.989 114.405 460.672 114.405C462.015 114.405 463.241 114.602 464.351 114.996C465.479 115.39 466.446 116.026 467.251 116.903C468.075 117.78 468.702 118.944 469.131 120.394C469.579 121.826 469.803 123.599 469.803 125.711V144H460.699V125.685C460.699 124.521 460.538 123.635 460.215 123.026C459.893 122.399 459.428 121.97 458.819 121.737C458.21 121.504 457.467 121.388 456.59 121.388C455.659 121.388 454.871 121.567 454.227 121.925C453.582 122.283 453.063 122.784 452.669 123.429C452.293 124.055 452.015 124.798 451.836 125.658C451.675 126.517 451.595 127.457 451.595 128.478ZM493.086 114.942H501.304V142.872C501.304 145.558 500.687 147.831 499.451 149.693C498.216 151.573 496.488 152.997 494.268 153.963C492.066 154.948 489.488 155.44 486.534 155.44C485.227 155.44 483.893 155.27 482.532 154.93C481.172 154.608 479.9 154.125 478.719 153.48C477.537 152.835 476.543 152.039 475.738 151.09L479.524 145.772C480.258 146.596 481.181 147.294 482.291 147.867C483.401 148.458 484.708 148.753 486.211 148.753C487.518 148.753 488.611 148.521 489.488 148.055C490.383 147.59 491.063 146.909 491.529 146.014C491.994 145.137 492.227 144.072 492.227 142.818V121.817L493.086 114.942ZM473.777 129.82V129.256C473.777 127.054 474.046 125.049 474.583 123.241C475.138 121.415 475.926 119.848 476.946 118.541C477.985 117.216 479.238 116.196 480.706 115.479C482.174 114.763 483.83 114.405 485.674 114.405C487.662 114.405 489.291 114.79 490.562 115.56C491.851 116.312 492.881 117.368 493.65 118.729C494.438 120.09 495.047 121.683 495.477 123.509C495.924 125.318 496.3 127.269 496.604 129.364V130.035C496.3 132.005 495.879 133.867 495.342 135.621C494.823 137.358 494.143 138.897 493.301 140.24C492.46 141.583 491.403 142.639 490.132 143.409C488.879 144.161 487.375 144.537 485.621 144.537C483.794 144.537 482.147 144.17 480.679 143.436C479.229 142.702 477.985 141.673 476.946 140.348C475.926 139.023 475.138 137.465 474.583 135.675C474.046 133.884 473.777 131.933 473.777 129.82ZM482.828 129.256V129.82C482.828 130.912 482.926 131.924 483.123 132.855C483.338 133.786 483.66 134.61 484.09 135.326C484.52 136.024 485.048 136.57 485.674 136.964C486.319 137.358 487.071 137.555 487.93 137.555C489.237 137.555 490.293 137.277 491.099 136.722C491.905 136.167 492.487 135.379 492.845 134.359C493.203 133.338 493.355 132.139 493.301 130.76V128.639C493.337 127.457 493.257 126.419 493.06 125.523C492.863 124.61 492.549 123.849 492.12 123.241C491.708 122.632 491.153 122.175 490.455 121.871C489.774 121.549 488.951 121.388 487.984 121.388C487.142 121.388 486.399 121.585 485.755 121.979C485.11 122.372 484.573 122.927 484.144 123.644C483.714 124.342 483.383 125.174 483.15 126.141C482.935 127.09 482.828 128.128 482.828 129.256ZM520.586 144.537C518.223 144.537 516.111 144.17 514.249 143.436C512.387 142.684 510.811 141.655 509.522 140.348C508.251 139.041 507.275 137.537 506.595 135.836C505.932 134.135 505.601 132.336 505.601 130.438V129.417C505.601 127.287 505.896 125.318 506.487 123.509C507.078 121.683 507.955 120.09 509.119 118.729C510.283 117.368 511.742 116.312 513.497 115.56C515.251 114.79 517.292 114.405 519.62 114.405C521.679 114.405 523.523 114.736 525.152 115.399C526.781 116.061 528.16 117.01 529.288 118.246C530.433 119.481 531.302 120.976 531.893 122.73C532.501 124.485 532.806 126.454 532.806 128.639V132.318H509.065V126.651H523.97V125.953C523.988 124.986 523.818 124.163 523.46 123.482C523.12 122.802 522.618 122.283 521.956 121.925C521.294 121.567 520.488 121.388 519.539 121.388C518.554 121.388 517.74 121.603 517.095 122.032C516.469 122.462 515.976 123.053 515.618 123.805C515.278 124.539 515.036 125.389 514.893 126.356C514.75 127.323 514.678 128.343 514.678 129.417V130.438C514.678 131.512 514.821 132.488 515.108 133.365C515.412 134.243 515.842 134.994 516.397 135.621C516.97 136.23 517.65 136.704 518.438 137.044C519.244 137.385 520.157 137.555 521.177 137.555C522.413 137.555 523.63 137.322 524.83 136.856C526.029 136.391 527.059 135.621 527.918 134.547L532.027 139.435C531.436 140.276 530.595 141.091 529.502 141.878C528.428 142.666 527.139 143.311 525.635 143.812C524.131 144.295 522.448 144.537 520.586 144.537ZM571.88 144V150.741H547.603V144H571.88ZM588.638 104.898H604.026C607.034 104.898 609.648 105.346 611.868 106.241C614.088 107.136 615.798 108.461 616.998 110.216C618.215 111.97 618.824 114.137 618.824 116.715C618.824 118.953 618.475 120.824 617.776 122.328C617.078 123.832 616.102 125.076 614.849 126.061C613.614 127.027 612.173 127.824 610.525 128.451L607.437 130.196H594.52L594.466 122.918H604.026C605.226 122.918 606.22 122.704 607.007 122.274C607.795 121.844 608.386 121.236 608.78 120.448C609.192 119.642 609.397 118.684 609.397 117.574C609.397 116.446 609.192 115.479 608.78 114.674C608.368 113.868 607.759 113.25 606.954 112.821C606.166 112.391 605.19 112.176 604.026 112.176H598.064V144H588.638V104.898ZM610.042 144L601.395 126.705L611.385 126.651L620.14 143.597V144H610.042ZM638.16 144.537C635.796 144.537 633.684 144.17 631.822 143.436C629.96 142.684 628.384 141.655 627.095 140.348C625.824 139.041 624.848 137.537 624.168 135.836C623.506 134.135 623.174 132.336 623.174 130.438V129.417C623.174 127.287 623.47 125.318 624.061 123.509C624.651 121.683 625.529 120.09 626.692 118.729C627.856 117.368 629.315 116.312 631.07 115.56C632.824 114.79 634.865 114.405 637.193 114.405C639.252 114.405 641.096 114.736 642.725 115.399C644.354 116.061 645.733 117.01 646.861 118.246C648.007 119.481 648.875 120.976 649.466 122.73C650.075 124.485 650.379 126.454 650.379 128.639V132.318H626.639V126.651H641.543V125.953C641.561 124.986 641.391 124.163 641.033 123.482C640.693 122.802 640.192 122.283 639.529 121.925C638.867 121.567 638.061 121.388 637.112 121.388C636.128 121.388 635.313 121.603 634.668 122.032C634.042 122.462 633.549 123.053 633.191 123.805C632.851 124.539 632.61 125.389 632.466 126.356C632.323 127.323 632.251 128.343 632.251 129.417V130.438C632.251 131.512 632.395 132.488 632.681 133.365C632.986 134.243 633.415 134.994 633.97 135.621C634.543 136.23 635.223 136.704 636.011 137.044C636.817 137.385 637.73 137.555 638.75 137.555C639.986 137.555 641.203 137.322 642.403 136.856C643.602 136.391 644.632 135.621 645.491 134.547L649.6 139.435C649.009 140.276 648.168 141.091 647.076 141.878C646.001 142.666 644.712 143.311 643.208 143.812C641.705 144.295 640.022 144.537 638.16 144.537ZM669.151 136.695V124.718C669.151 123.894 669.035 123.187 668.802 122.596C668.569 122.005 668.202 121.549 667.701 121.227C667.199 120.886 666.528 120.716 665.687 120.716C665.006 120.716 664.424 120.833 663.941 121.065C663.458 121.298 663.09 121.647 662.84 122.113C662.589 122.578 662.464 123.169 662.464 123.885H653.414C653.414 122.542 653.709 121.298 654.3 120.152C654.909 118.989 655.768 117.977 656.878 117.118C658.006 116.258 659.349 115.596 660.906 115.13C662.482 114.647 664.236 114.405 666.17 114.405C668.479 114.405 670.538 114.79 672.347 115.56C674.173 116.33 675.614 117.485 676.67 119.024C677.727 120.546 678.255 122.462 678.255 124.771V136.668C678.255 138.566 678.362 140.007 678.577 140.992C678.792 141.959 679.096 142.809 679.49 143.543V144H670.413C669.983 143.105 669.661 142.013 669.446 140.724C669.249 139.417 669.151 138.074 669.151 136.695ZM670.252 126.249L670.306 131.083H666.304C665.463 131.083 664.747 131.199 664.156 131.432C663.583 131.664 663.117 131.987 662.759 132.398C662.419 132.792 662.168 133.24 662.007 133.741C661.864 134.243 661.792 134.771 661.792 135.326C661.792 135.863 661.918 136.346 662.168 136.776C662.437 137.188 662.795 137.51 663.243 137.743C663.69 137.975 664.192 138.092 664.747 138.092C665.749 138.092 666.6 137.904 667.298 137.528C668.014 137.134 668.56 136.66 668.936 136.104C669.312 135.549 669.5 135.03 669.5 134.547L671.487 138.253C671.129 138.969 670.717 139.694 670.252 140.428C669.804 141.162 669.24 141.843 668.56 142.469C667.898 143.078 667.083 143.579 666.116 143.973C665.149 144.349 663.977 144.537 662.598 144.537C660.808 144.537 659.161 144.17 657.657 143.436C656.171 142.702 654.98 141.681 654.085 140.375C653.19 139.05 652.742 137.528 652.742 135.809C652.742 134.305 653.011 132.962 653.548 131.781C654.103 130.599 654.935 129.597 656.045 128.773C657.155 127.949 658.57 127.323 660.289 126.893C662.007 126.463 664.03 126.249 666.358 126.249H670.252ZM695.55 137.555C696.391 137.555 697.107 137.403 697.698 137.098C698.307 136.776 698.764 136.328 699.068 135.755C699.39 135.165 699.542 134.457 699.524 133.634H708.038C708.056 135.818 707.518 137.734 706.426 139.381C705.352 141.01 703.884 142.281 702.022 143.194C700.178 144.09 698.092 144.537 695.765 144.537C693.491 144.537 691.504 144.17 689.803 143.436C688.102 142.684 686.679 141.646 685.533 140.321C684.405 138.978 683.554 137.411 682.981 135.621C682.426 133.831 682.149 131.888 682.149 129.793V129.176C682.149 127.081 682.426 125.139 682.981 123.348C683.554 121.54 684.405 119.973 685.533 118.648C686.679 117.306 688.093 116.267 689.776 115.533C691.477 114.781 693.455 114.405 695.711 114.405C698.128 114.405 700.258 114.862 702.103 115.775C703.965 116.688 705.424 118.013 706.48 119.75C707.536 121.486 708.056 123.59 708.038 126.061H699.524C699.542 125.183 699.408 124.396 699.122 123.697C698.835 122.999 698.388 122.444 697.779 122.032C697.188 121.603 696.427 121.388 695.496 121.388C694.565 121.388 693.813 121.594 693.24 122.005C692.667 122.417 692.229 122.99 691.924 123.724C691.638 124.44 691.441 125.264 691.333 126.195C691.244 127.126 691.199 128.119 691.199 129.176V129.793C691.199 130.868 691.244 131.879 691.333 132.828C691.441 133.759 691.647 134.583 691.951 135.299C692.256 135.997 692.694 136.552 693.267 136.964C693.84 137.358 694.601 137.555 695.55 137.555ZM727.212 114.942V121.227H709.703V114.942H727.212ZM713.382 107.718H722.432V134.52C722.432 135.29 722.522 135.89 722.701 136.319C722.88 136.731 723.184 137.027 723.614 137.206C724.061 137.367 724.652 137.447 725.386 137.447C725.905 137.447 726.335 137.438 726.675 137.42C727.015 137.385 727.338 137.34 727.642 137.286V143.758C726.872 144.009 726.067 144.197 725.225 144.322C724.384 144.465 723.488 144.537 722.54 144.537C720.606 144.537 718.95 144.233 717.571 143.624C716.211 143.015 715.172 142.057 714.456 140.75C713.74 139.444 713.382 137.743 713.382 135.648V107.718Z" fill="black"/>
<path d="M110.816 65.2515V69.2505H97.8276V65.2515H110.816ZM99.3486 55.1172V80H94.2217V55.1172H99.3486ZM114.473 55.1172V80H109.363V55.1172H114.473ZM128.606 75.8301V67.5928C128.606 67.0003 128.51 66.4933 128.316 66.0718C128.122 65.6388 127.82 65.3027 127.41 65.0635C127.011 64.8242 126.493 64.7046 125.855 64.7046C125.308 64.7046 124.835 64.8014 124.437 64.9951C124.038 65.1774 123.73 65.4451 123.514 65.7983C123.297 66.1401 123.189 66.5446 123.189 67.0117H118.267C118.267 66.2256 118.449 65.4793 118.814 64.7729C119.179 64.0666 119.708 63.4456 120.403 62.9102C121.098 62.3633 121.924 61.936 122.881 61.6284C123.85 61.3208 124.932 61.167 126.128 61.167C127.564 61.167 128.84 61.4062 129.957 61.8848C131.073 62.3633 131.95 63.0811 132.588 64.0381C133.238 64.9951 133.562 66.1914 133.562 67.627V75.5396C133.562 76.5535 133.625 77.3853 133.75 78.0347C133.876 78.6727 134.058 79.231 134.297 79.7095V80H129.324C129.085 79.4987 128.903 78.8721 128.777 78.1201C128.663 77.3568 128.606 76.5934 128.606 75.8301ZM129.256 68.7378L129.29 71.5234H126.539C125.889 71.5234 125.325 71.5975 124.847 71.7456C124.368 71.8937 123.975 72.1045 123.667 72.3779C123.36 72.64 123.132 72.9476 122.984 73.3008C122.847 73.654 122.779 74.0413 122.779 74.4629C122.779 74.8844 122.876 75.2661 123.069 75.6079C123.263 75.9383 123.542 76.2004 123.907 76.394C124.271 76.5763 124.699 76.6675 125.188 76.6675C125.929 76.6675 126.573 76.5194 127.12 76.2231C127.667 75.9269 128.088 75.5623 128.384 75.1294C128.692 74.6965 128.851 74.2863 128.863 73.8989L130.162 75.9839C129.979 76.451 129.729 76.9352 129.41 77.4365C129.102 77.9378 128.709 78.4106 128.23 78.855C127.752 79.2879 127.177 79.6468 126.504 79.9316C125.832 80.2051 125.035 80.3418 124.112 80.3418C122.938 80.3418 121.873 80.1082 120.916 79.6411C119.97 79.1626 119.218 78.5075 118.66 77.6758C118.113 76.8327 117.84 75.8757 117.84 74.8047C117.84 73.8363 118.022 72.9761 118.387 72.2241C118.751 71.4722 119.287 70.8398 119.993 70.3271C120.711 69.8031 121.605 69.41 122.676 69.1479C123.747 68.8745 124.989 68.7378 126.402 68.7378H129.256ZM148.277 75.9668V53.75H153.233V80H148.772L148.277 75.9668ZM136.587 70.9766V70.6177C136.587 69.2049 136.747 67.9232 137.066 66.7725C137.385 65.6104 137.852 64.6134 138.467 63.7817C139.083 62.95 139.84 62.3063 140.74 61.8506C141.64 61.3949 142.666 61.167 143.816 61.167C144.899 61.167 145.844 61.3949 146.653 61.8506C147.474 62.3063 148.169 62.9557 148.738 63.7988C149.319 64.6305 149.786 65.616 150.14 66.7554C150.493 67.8833 150.749 69.1195 150.909 70.4639V71.25C150.749 72.5374 150.493 73.7337 150.14 74.8389C149.786 75.944 149.319 76.9124 148.738 77.7441C148.169 78.5645 147.474 79.2025 146.653 79.6582C145.833 80.1139 144.876 80.3418 143.782 80.3418C142.632 80.3418 141.606 80.1082 140.706 79.6411C139.817 79.174 139.065 78.5189 138.45 77.6758C137.846 76.8327 137.385 75.8415 137.066 74.7021C136.747 73.5628 136.587 72.321 136.587 70.9766ZM141.509 70.6177V70.9766C141.509 71.7399 141.566 72.452 141.68 73.1128C141.806 73.7736 142.005 74.3604 142.278 74.873C142.563 75.3743 142.928 75.7674 143.372 76.0522C143.828 76.3257 144.38 76.4624 145.03 76.4624C145.873 76.4624 146.568 76.2744 147.115 75.8984C147.662 75.5111 148.077 74.9813 148.362 74.3091C148.659 73.6369 148.829 72.8621 148.875 71.9849V69.7461C148.841 69.0283 148.738 68.3846 148.567 67.8149C148.408 67.2339 148.169 66.7383 147.85 66.3281C147.542 65.918 147.155 65.599 146.688 65.3711C146.232 65.1432 145.691 65.0293 145.064 65.0293C144.426 65.0293 143.879 65.1774 143.423 65.4736C142.968 65.7585 142.597 66.1515 142.312 66.6528C142.039 67.1541 141.834 67.7466 141.697 68.4302C141.572 69.1024 141.509 69.8315 141.509 70.6177ZM162.273 61.5088V80H157.334V61.5088H162.273ZM157.027 56.6895C157.027 55.9717 157.278 55.3792 157.779 54.9121C158.28 54.445 158.952 54.2114 159.795 54.2114C160.627 54.2114 161.294 54.445 161.795 54.9121C162.308 55.3792 162.564 55.9717 162.564 56.6895C162.564 57.4072 162.308 57.9997 161.795 58.4668C161.294 58.9339 160.627 59.1675 159.795 59.1675C158.952 59.1675 158.28 58.9339 157.779 58.4668C157.278 57.9997 157.027 57.4072 157.027 56.6895ZM185.481 59.3726L178.714 80H173.262L182.508 55.1172H185.977L185.481 59.3726ZM191.104 80L184.319 59.3726L183.772 55.1172H187.276L196.573 80H191.104ZM190.796 70.7373V74.7534H177.654V70.7373H190.796ZM203.768 53.75V80H198.829V53.75H203.768ZM213.27 55.1172V80H208.143V55.1172H213.27ZM228.172 55.1172L218.311 67.4048L212.62 73.5229L211.697 68.6694L215.542 63.4058L221.883 55.1172H228.172ZM222.344 80L215.013 68.4985L218.807 65.3198L228.411 80H222.344ZM240.066 75.8301V67.5928C240.066 67.0003 239.97 66.4933 239.776 66.0718C239.582 65.6388 239.28 65.3027 238.87 65.0635C238.471 64.8242 237.953 64.7046 237.315 64.7046C236.768 64.7046 236.295 64.8014 235.896 64.9951C235.498 65.1774 235.19 65.4451 234.974 65.7983C234.757 66.1401 234.649 66.5446 234.649 67.0117H229.727C229.727 66.2256 229.909 65.4793 230.274 64.7729C230.639 64.0666 231.168 63.4456 231.863 62.9102C232.558 62.3633 233.384 61.936 234.341 61.6284C235.31 61.3208 236.392 61.167 237.588 61.167C239.024 61.167 240.3 61.4062 241.417 61.8848C242.533 62.3633 243.41 63.0811 244.048 64.0381C244.698 64.9951 245.022 66.1914 245.022 67.627V75.5396C245.022 76.5535 245.085 77.3853 245.21 78.0347C245.336 78.6727 245.518 79.231 245.757 79.7095V80H240.784C240.545 79.4987 240.363 78.8721 240.237 78.1201C240.123 77.3568 240.066 76.5934 240.066 75.8301ZM240.716 68.7378L240.75 71.5234H237.999C237.349 71.5234 236.785 71.5975 236.307 71.7456C235.828 71.8937 235.435 72.1045 235.127 72.3779C234.82 72.64 234.592 72.9476 234.444 73.3008C234.307 73.654 234.239 74.0413 234.239 74.4629C234.239 74.8844 234.336 75.2661 234.529 75.6079C234.723 75.9383 235.002 76.2004 235.367 76.394C235.731 76.5763 236.159 76.6675 236.648 76.6675C237.389 76.6675 238.033 76.5194 238.58 76.2231C239.126 75.9269 239.548 75.5623 239.844 75.1294C240.152 74.6965 240.311 74.2863 240.323 73.8989L241.622 75.9839C241.439 76.451 241.189 76.9352 240.87 77.4365C240.562 77.9378 240.169 78.4106 239.69 78.855C239.212 79.2879 238.637 79.6468 237.964 79.9316C237.292 80.2051 236.495 80.3418 235.572 80.3418C234.398 80.3418 233.333 80.1082 232.376 79.6411C231.43 79.1626 230.678 78.5075 230.12 77.6758C229.573 76.8327 229.3 75.8757 229.3 74.8047C229.3 73.8363 229.482 72.9761 229.847 72.2241C230.211 71.4722 230.747 70.8398 231.453 70.3271C232.171 69.8031 233.065 69.41 234.136 69.1479C235.207 68.8745 236.449 68.7378 237.862 68.7378H240.716ZM253.738 65.3369V80H248.799V61.5088H253.431L253.738 65.3369ZM253.055 70.105H251.688C251.688 68.8175 251.841 67.6326 252.149 66.5503C252.468 65.4565 252.929 64.5109 253.533 63.7134C254.148 62.9045 254.906 62.2778 255.806 61.8335C256.706 61.3892 257.749 61.167 258.934 61.167C259.754 61.167 260.506 61.2923 261.189 61.543C261.873 61.7822 262.46 62.1639 262.95 62.688C263.451 63.2007 263.838 63.8729 264.112 64.7046C264.385 65.5249 264.522 66.5104 264.522 67.6611V80H259.6V68.208C259.6 67.3649 259.486 66.7155 259.258 66.2598C259.03 65.804 258.706 65.485 258.284 65.3027C257.874 65.1204 257.378 65.0293 256.797 65.0293C256.159 65.0293 255.601 65.1603 255.123 65.4224C254.655 65.6844 254.268 66.049 253.96 66.5161C253.653 66.9718 253.425 67.5073 253.277 68.1226C253.129 68.7378 253.055 69.3986 253.055 70.105ZM264.061 69.541L262.3 69.7632C262.3 68.5555 262.448 67.4333 262.745 66.3965C263.052 65.3597 263.502 64.4482 264.095 63.6621C264.699 62.876 265.445 62.2664 266.333 61.8335C267.222 61.3892 268.248 61.167 269.41 61.167C270.298 61.167 271.107 61.298 271.836 61.5601C272.566 61.8107 273.187 62.2152 273.699 62.7734C274.223 63.3203 274.622 64.0381 274.896 64.9268C275.18 65.8154 275.323 66.9035 275.323 68.1909V80H270.384V68.1909C270.384 67.3364 270.27 66.687 270.042 66.2427C269.826 65.7869 269.507 65.4736 269.085 65.3027C268.675 65.1204 268.185 65.0293 267.615 65.0293C267.023 65.0293 266.504 65.1489 266.06 65.3882C265.616 65.616 265.245 65.9351 264.949 66.3452C264.653 66.7554 264.431 67.2339 264.283 67.7808C264.135 68.3162 264.061 68.903 264.061 69.541ZM284.056 65.3369V80H279.117V61.5088H283.748L284.056 65.3369ZM283.372 70.105H282.005C282.005 68.8175 282.159 67.6326 282.466 66.5503C282.785 65.4565 283.247 64.5109 283.851 63.7134C284.466 62.9045 285.223 62.2778 286.124 61.8335C287.024 61.3892 288.066 61.167 289.251 61.167C290.071 61.167 290.823 61.2923 291.507 61.543C292.19 61.7822 292.777 62.1639 293.267 62.688C293.768 63.2007 294.156 63.8729 294.429 64.7046C294.703 65.5249 294.839 66.5104 294.839 67.6611V80H289.917V68.208C289.917 67.3649 289.804 66.7155 289.576 66.2598C289.348 65.804 289.023 65.485 288.602 65.3027C288.191 65.1204 287.696 65.0293 287.115 65.0293C286.477 65.0293 285.918 65.1603 285.44 65.4224C284.973 65.6844 284.585 66.049 284.278 66.5161C283.97 66.9718 283.742 67.5073 283.594 68.1226C283.446 68.7378 283.372 69.3986 283.372 70.105ZM294.378 69.541L292.618 69.7632C292.618 68.5555 292.766 67.4333 293.062 66.3965C293.37 65.3597 293.82 64.4482 294.412 63.6621C295.016 62.876 295.762 62.2664 296.651 61.8335C297.54 61.3892 298.565 61.167 299.727 61.167C300.616 61.167 301.425 61.298 302.154 61.5601C302.883 61.8107 303.504 62.2152 304.017 62.7734C304.541 63.3203 304.939 64.0381 305.213 64.9268C305.498 65.8154 305.64 66.9035 305.64 68.1909V80H300.701V68.1909C300.701 67.3364 300.587 66.687 300.359 66.2427C300.143 65.7869 299.824 65.4736 299.402 65.3027C298.992 65.1204 298.502 65.0293 297.933 65.0293C297.34 65.0293 296.822 65.1489 296.377 65.3882C295.933 65.616 295.563 65.9351 295.267 66.3452C294.97 66.7554 294.748 67.2339 294.6 67.7808C294.452 68.3162 294.378 68.903 294.378 69.541ZM308.665 70.9424V70.5835C308.665 69.2277 308.859 67.9801 309.246 66.8408C309.633 65.6901 310.197 64.6932 310.938 63.8501C311.679 63.007 312.59 62.3519 313.672 61.8848C314.755 61.4062 315.997 61.167 317.398 61.167C318.799 61.167 320.047 61.4062 321.141 61.8848C322.234 62.3519 323.152 63.007 323.892 63.8501C324.644 64.6932 325.214 65.6901 325.601 66.8408C325.988 67.9801 326.182 69.2277 326.182 70.5835V70.9424C326.182 72.2868 325.988 73.5343 325.601 74.6851C325.214 75.8244 324.644 76.8213 323.892 77.6758C323.152 78.5189 322.24 79.174 321.158 79.6411C320.075 80.1082 318.833 80.3418 317.432 80.3418C316.031 80.3418 314.783 80.1082 313.689 79.6411C312.607 79.174 311.69 78.5189 310.938 77.6758C310.197 76.8213 309.633 75.8244 309.246 74.6851C308.859 73.5343 308.665 72.2868 308.665 70.9424ZM313.587 70.5835V70.9424C313.587 71.7171 313.655 72.4406 313.792 73.1128C313.929 73.785 314.145 74.3774 314.441 74.8901C314.749 75.3914 315.148 75.7845 315.638 76.0693C316.128 76.3542 316.726 76.4966 317.432 76.4966C318.116 76.4966 318.702 76.3542 319.192 76.0693C319.682 75.7845 320.075 75.3914 320.372 74.8901C320.668 74.3774 320.884 73.785 321.021 73.1128C321.169 72.4406 321.243 71.7171 321.243 70.9424V70.5835C321.243 69.8315 321.169 69.1252 321.021 68.4644C320.884 67.7922 320.662 67.1997 320.354 66.687C320.058 66.1629 319.665 65.7528 319.175 65.4565C318.685 65.1603 318.093 65.0122 317.398 65.0122C316.703 65.0122 316.111 65.1603 315.621 65.4565C315.142 65.7528 314.749 66.1629 314.441 66.687C314.145 67.1997 313.929 67.7922 313.792 68.4644C313.655 69.1252 313.587 69.8315 313.587 70.5835ZM340.145 75.5737V61.5088H345.066V80H340.435L340.145 75.5737ZM340.691 71.7798L342.144 71.7456C342.144 72.9761 342.002 74.1211 341.717 75.1807C341.432 76.2288 341.005 77.1403 340.435 77.915C339.865 78.6784 339.148 79.2765 338.282 79.7095C337.416 80.131 336.396 80.3418 335.223 80.3418C334.323 80.3418 333.491 80.2165 332.728 79.9658C331.976 79.7038 331.326 79.2993 330.779 78.7524C330.244 78.1942 329.822 77.4821 329.515 76.6162C329.218 75.7389 329.07 74.6851 329.07 73.4546V61.5088H333.992V73.4888C333.992 74.0356 334.055 74.4971 334.18 74.873C334.317 75.249 334.505 75.5566 334.744 75.7959C334.983 76.0352 335.263 76.2061 335.582 76.3086C335.912 76.4111 336.277 76.4624 336.675 76.4624C337.689 76.4624 338.487 76.2573 339.068 75.8472C339.66 75.437 340.076 74.8787 340.315 74.1724C340.566 73.4546 340.691 72.6571 340.691 71.7798ZM353.646 65.4565V80H348.724V61.5088H353.338L353.646 65.4565ZM352.928 70.105H351.595C351.595 68.7378 351.771 67.5073 352.125 66.4136C352.478 65.3084 352.973 64.3685 353.611 63.5938C354.249 62.8076 355.007 62.2095 355.884 61.7993C356.773 61.3778 357.764 61.167 358.858 61.167C359.724 61.167 360.516 61.2923 361.233 61.543C361.951 61.7936 362.566 62.1924 363.079 62.7393C363.603 63.2861 364.002 64.0096 364.275 64.9097C364.56 65.8097 364.703 66.9092 364.703 68.208V80H359.747V68.1909C359.747 67.3706 359.633 66.7326 359.405 66.2769C359.177 65.8211 358.841 65.5021 358.396 65.3198C357.964 65.1261 357.428 65.0293 356.79 65.0293C356.129 65.0293 355.554 65.1603 355.064 65.4224C354.585 65.6844 354.187 66.049 353.868 66.5161C353.56 66.9718 353.326 67.5073 353.167 68.1226C353.007 68.7378 352.928 69.3986 352.928 70.105ZM373.641 61.5088V80H368.702V61.5088H373.641ZM368.394 56.6895C368.394 55.9717 368.645 55.3792 369.146 54.9121C369.647 54.445 370.319 54.2114 371.163 54.2114C371.994 54.2114 372.661 54.445 373.162 54.9121C373.675 55.3792 373.931 55.9717 373.931 56.6895C373.931 57.4072 373.675 57.9997 373.162 58.4668C372.661 58.9339 371.994 59.1675 371.163 59.1675C370.319 59.1675 369.647 58.9339 369.146 58.4668C368.645 57.9997 368.394 57.4072 368.394 56.6895Z" fill="#888888"/>
<rect x="92" y="181" width="1179" height="80" rx="13.3333" fill="#CCCCCC"/>
<rect x="107" y="196.333" width="208" height="49.3333" rx="4.66667" fill="#888888" stroke="#888888" stroke-width="4"/>
<path d="M184.5 213.167H190.469C191.635 213.167 192.649 213.34 193.51 213.687C194.372 214.035 195.035 214.549 195.5 215.229C195.972 215.91 196.208 216.75 196.208 217.75C196.208 218.618 196.073 219.344 195.802 219.927C195.531 220.51 195.153 220.993 194.667 221.375C194.188 221.75 193.628 222.059 192.99 222.302L191.792 222.979H186.781L186.76 220.156H190.469C190.934 220.156 191.319 220.073 191.625 219.906C191.931 219.74 192.16 219.503 192.313 219.198C192.472 218.885 192.552 218.514 192.552 218.083C192.552 217.646 192.472 217.271 192.313 216.958C192.153 216.646 191.917 216.406 191.604 216.24C191.299 216.073 190.92 215.99 190.469 215.99H188.156V228.333H184.5V213.167ZM192.802 228.333L189.448 221.625L193.323 221.604L196.719 228.177V228.333H192.802ZM203.708 228.542C202.792 228.542 201.972 228.399 201.25 228.115C200.528 227.823 199.917 227.424 199.417 226.917C198.924 226.41 198.545 225.826 198.281 225.167C198.024 224.507 197.896 223.809 197.896 223.073V222.677C197.896 221.851 198.01 221.087 198.24 220.385C198.469 219.677 198.809 219.059 199.26 218.531C199.712 218.003 200.278 217.594 200.958 217.302C201.639 217.003 202.431 216.854 203.333 216.854C204.132 216.854 204.847 216.983 205.479 217.24C206.111 217.497 206.646 217.865 207.083 218.344C207.528 218.823 207.865 219.403 208.094 220.083C208.33 220.764 208.448 221.528 208.448 222.375V223.802H199.24V221.604H205.021V221.333C205.028 220.958 204.962 220.639 204.823 220.375C204.691 220.111 204.497 219.91 204.24 219.771C203.983 219.632 203.67 219.562 203.302 219.562C202.92 219.562 202.604 219.646 202.354 219.812C202.111 219.979 201.92 220.208 201.781 220.5C201.649 220.785 201.556 221.115 201.5 221.49C201.444 221.865 201.417 222.26 201.417 222.677V223.073C201.417 223.49 201.472 223.868 201.583 224.208C201.701 224.549 201.868 224.84 202.083 225.083C202.306 225.319 202.569 225.503 202.875 225.635C203.187 225.767 203.542 225.833 203.937 225.833C204.417 225.833 204.889 225.743 205.354 225.562C205.819 225.382 206.219 225.083 206.552 224.667L208.146 226.562C207.917 226.889 207.59 227.205 207.167 227.51C206.75 227.816 206.25 228.066 205.667 228.26C205.083 228.448 204.431 228.542 203.708 228.542ZM215.729 225.5V220.854C215.729 220.535 215.684 220.26 215.594 220.031C215.503 219.802 215.361 219.625 215.167 219.5C214.972 219.368 214.712 219.302 214.385 219.302C214.122 219.302 213.896 219.347 213.708 219.437C213.521 219.528 213.378 219.663 213.281 219.844C213.184 220.024 213.135 220.253 213.135 220.531H209.625C209.625 220.01 209.74 219.528 209.969 219.083C210.205 218.632 210.538 218.24 210.969 217.906C211.406 217.573 211.927 217.316 212.531 217.135C213.142 216.948 213.823 216.854 214.573 216.854C215.469 216.854 216.267 217.003 216.969 217.302C217.677 217.601 218.236 218.049 218.646 218.646C219.056 219.236 219.26 219.979 219.26 220.875V225.49C219.26 226.226 219.302 226.785 219.385 227.167C219.469 227.542 219.587 227.872 219.74 228.156V228.333H216.219C216.052 227.986 215.927 227.562 215.844 227.062C215.767 226.556 215.729 226.035 215.729 225.5ZM216.156 221.448L216.177 223.323H214.625C214.299 223.323 214.021 223.368 213.792 223.458C213.569 223.549 213.389 223.674 213.25 223.833C213.118 223.986 213.021 224.16 212.958 224.354C212.903 224.549 212.875 224.753 212.875 224.969C212.875 225.177 212.924 225.365 213.021 225.531C213.125 225.691 213.264 225.816 213.438 225.906C213.611 225.997 213.806 226.042 214.021 226.042C214.41 226.042 214.74 225.969 215.01 225.823C215.288 225.67 215.5 225.486 215.646 225.271C215.792 225.056 215.865 224.854 215.865 224.667L216.635 226.104C216.497 226.382 216.337 226.663 216.156 226.948C215.983 227.233 215.764 227.497 215.5 227.74C215.243 227.976 214.927 228.17 214.552 228.323C214.177 228.469 213.722 228.542 213.188 228.542C212.493 228.542 211.854 228.399 211.271 228.115C210.694 227.83 210.233 227.434 209.885 226.927C209.538 226.413 209.365 225.823 209.365 225.156C209.365 224.573 209.469 224.052 209.677 223.594C209.892 223.135 210.215 222.747 210.646 222.427C211.076 222.108 211.625 221.865 212.292 221.698C212.958 221.531 213.743 221.448 214.646 221.448H216.156ZM225.969 225.833C226.295 225.833 226.573 225.774 226.802 225.656C227.038 225.531 227.215 225.358 227.333 225.135C227.458 224.906 227.517 224.632 227.51 224.312H230.813C230.819 225.16 230.611 225.903 230.188 226.542C229.771 227.174 229.201 227.667 228.479 228.021C227.764 228.368 226.955 228.542 226.052 228.542C225.17 228.542 224.399 228.399 223.74 228.115C223.08 227.823 222.528 227.42 222.083 226.906C221.646 226.385 221.316 225.778 221.094 225.083C220.878 224.389 220.771 223.635 220.771 222.823V222.583C220.771 221.771 220.878 221.017 221.094 220.323C221.316 219.622 221.646 219.014 222.083 218.5C222.528 217.979 223.076 217.576 223.729 217.292C224.389 217 225.156 216.854 226.031 216.854C226.969 216.854 227.795 217.031 228.51 217.385C229.233 217.74 229.799 218.253 230.208 218.927C230.618 219.601 230.819 220.417 230.813 221.375H227.51C227.517 221.035 227.465 220.729 227.354 220.458C227.243 220.187 227.069 219.972 226.833 219.812C226.604 219.646 226.309 219.562 225.948 219.562C225.587 219.562 225.295 219.642 225.073 219.802C224.851 219.962 224.681 220.184 224.563 220.469C224.451 220.747 224.375 221.066 224.333 221.427C224.299 221.788 224.281 222.174 224.281 222.583V222.823C224.281 223.24 224.299 223.632 224.333 224C224.375 224.361 224.455 224.681 224.573 224.958C224.691 225.229 224.861 225.444 225.083 225.604C225.306 225.757 225.601 225.833 225.969 225.833ZM238.25 217.062V219.5H231.458V217.062H238.25ZM232.885 214.26H236.396V224.656C236.396 224.955 236.431 225.187 236.5 225.354C236.569 225.514 236.688 225.628 236.854 225.698C237.028 225.76 237.257 225.792 237.542 225.792C237.743 225.792 237.91 225.788 238.042 225.781C238.174 225.767 238.299 225.75 238.417 225.729V228.24C238.118 228.337 237.806 228.41 237.479 228.458C237.153 228.514 236.806 228.542 236.438 228.542C235.688 228.542 235.045 228.424 234.51 228.187C233.983 227.951 233.58 227.58 233.302 227.073C233.024 226.566 232.885 225.906 232.885 225.094V214.26Z" fill="white"/>
</svg>
